<svg fill="none" height="44" viewBox="0 0 44 44" width="44" xmlns="http://www.w3.org/2000/svg">
  <g clip-path="url(#clip0_42_1961)">
    <path
      d="M16.4999 2.75C15.7706 2.75 15.0711 3.03973 14.5554 3.55546C14.0397 4.07118 13.7499 4.77065 13.7499 5.5V8.25H13.2522C11.9062 8.24934 10.5897 8.64377 9.46585 9.38437C8.34199 10.125 7.46024 11.1792 6.92994 12.4162L4.75194 17.4983C4.5458 17.9804 4.17559 18.374 3.70694 18.6093C2.33194 19.2968 1.35569 20.5755 1.05319 22.0798L0.137436 26.697C0.0482827 27.1406 0.00314708 27.592 0.00268555 28.0445V29.1803C0.00268555 31.4188 1.07519 33.4235 2.75269 34.672V39.875C2.75269 40.2397 2.89755 40.5894 3.15541 40.8473C3.41328 41.1051 3.76301 41.25 4.12769 41.25H9.62769C9.99236 41.25 10.3421 41.1051 10.6 40.8473C10.8578 40.5894 11.0027 40.2397 11.0027 39.875V36.1955C14.5557 36.3275 18.5514 36.4375 22.0027 36.4375C25.4539 36.4375 29.4497 36.3275 33.0027 36.1955V39.875C33.0027 40.2397 33.1475 40.5894 33.4054 40.8473C33.6633 41.1051 34.013 41.25 34.3777 41.25H39.8777C40.2424 41.25 40.5921 41.1051 40.85 40.8473C41.1078 40.5894 41.2527 40.2397 41.2527 39.875V34.672C42.9302 33.4235 44.0027 31.4188 44.0027 29.1803V28.0445C44.0027 27.5907 43.9587 27.1398 43.8679 26.697L42.9467 22.077C42.7979 21.3353 42.4817 20.6374 42.0223 20.0365C41.5629 19.4355 40.9724 18.9474 40.2957 18.6093C39.826 18.3745 39.4548 17.9809 39.2479 17.4983L37.0699 12.4162C36.5396 11.1792 35.6579 10.125 34.534 9.38437C33.4102 8.64377 32.0936 8.24934 30.7477 8.25H30.2499V5.5C30.2499 4.77065 29.9602 4.07118 29.4445 3.55546C28.9288 3.03973 28.2293 2.75 27.4999 2.75H16.4999ZM11.8497 11H32.1502C32.4053 11 32.6554 11.071 32.8725 11.205C33.0896 11.3391 33.2651 11.5309 33.3794 11.759L36.0084 17.0198C36.1159 17.2415 36.1631 17.4878 36.1451 17.7336C36.1272 17.9794 36.0447 18.2161 35.9062 18.42C35.7676 18.6238 35.5777 18.7875 35.3558 18.8946C35.1338 19.0017 34.8875 19.0484 34.6417 19.03C32.1392 18.8293 25.4292 18.5625 21.9999 18.5625C18.5707 18.5625 11.8579 18.8293 9.35819 19.03C9.1124 19.0484 8.86611 19.0017 8.64412 18.8946C8.42213 18.7875 8.23228 18.6238 8.09371 18.42C7.95513 18.2161 7.87271 17.9794 7.85475 17.7336C7.8368 17.4878 7.88394 17.2415 7.99144 17.0198L10.6204 11.759C10.7347 11.5309 10.9103 11.3391 11.1273 11.205C11.3444 11.071 11.5945 11 11.8497 11ZM10.9999 27.5C10.9999 28.2293 10.7102 28.9288 10.1945 29.4445C9.67875 29.9603 8.97928 30.25 8.24994 30.25C7.52059 30.25 6.82112 29.9603 6.30539 29.4445C5.78967 28.9288 5.49994 28.2293 5.49994 27.5C5.49994 26.7707 5.78967 26.0712 6.30539 25.5555C6.82112 25.0397 7.52059 24.75 8.24994 24.75C8.97928 24.75 9.67875 25.0397 10.1945 25.5555C10.7102 26.0712 10.9999 26.7707 10.9999 27.5ZM38.4999 27.5C38.4999 28.2293 38.2102 28.9288 37.6945 29.4445C37.1788 29.9603 36.4793 30.25 35.7499 30.25C35.0206 30.25 34.3211 29.9603 33.8054 29.4445C33.2897 28.9288 32.9999 28.2293 32.9999 27.5C32.9999 26.7707 33.2897 26.0712 33.8054 25.5555C34.3211 25.0397 35.0206 24.75 35.7499 24.75C36.4793 24.75 37.1788 25.0397 37.6945 25.5555C38.2102 26.0712 38.4999 26.7707 38.4999 27.5ZM13.7499 27.5C13.7499 26.7707 14.0397 26.0712 14.5554 25.5555C15.0711 25.0397 15.7706 24.75 16.4999 24.75H27.4999C28.2293 24.75 28.9288 25.0397 29.4445 25.5555C29.9602 26.0712 30.2499 26.7707 30.2499 27.5C30.2499 28.2293 29.9602 28.9288 29.4445 29.4445C28.9288 29.9603 28.2293 30.25 27.4999 30.25H16.4999C15.7706 30.25 15.0711 29.9603 14.5554 29.4445C14.0397 28.9288 13.7499 28.2293 13.7499 27.5Z"
      fill="#F8F8F8"/>
  </g>
  <defs>
    <clipPath id="clip0_42_1961">
      <rect fill="white" height="44" width="44"/>
    </clipPath>
  </defs>
</svg>
