<svg fill="none" height="44" viewBox="0 0 39 44" width="39" xmlns="http://www.w3.org/2000/svg">
  <g clip-path="url(#clip0_42_1969)">
    <path
      d="M5.5 2.75C2.46641 2.75 0 5.21641 0 8.25V35.75C0 38.7836 2.46641 41.25 5.5 41.25H33C36.0336 41.25 38.5 38.7836 38.5 35.75V8.25C38.5 5.21641 36.0336 2.75 33 2.75H5.5ZM16.5 22H20.625C22.1461 22 23.375 20.7711 23.375 19.25C23.375 17.7289 22.1461 16.5 20.625 16.5H16.5V22ZM20.625 27.5H16.5V30.25C16.5 31.7711 15.2711 33 13.75 33C12.2289 33 11 31.7711 11 30.25V14.4375C11 12.5383 12.5383 11 14.4375 11H20.625C25.1797 11 28.875 14.6953 28.875 19.25C28.875 23.8047 25.1797 27.5 20.625 27.5Z"
      fill="#F8F8F8"/>
  </g>
  <defs>
    <clipPath id="clip0_42_1969">
      <rect fill="white" height="44" width="38.5"/>
    </clipPath>
  </defs>
</svg>
