<svg fill="none" height="44" viewBox="0 0 44 44" width="44" xmlns="http://www.w3.org/2000/svg">
  <path
    d="M12.8333 23.8334C15.8766 23.8334 18.3333 21.3767 18.3333 18.3334C18.3333 15.2901 15.8766 12.8334 12.8333 12.8334C9.78992 12.8334 7.33325 15.2901 7.33325 18.3334C7.33325 21.3767 9.78992 23.8334 12.8333 23.8334ZM34.8333 12.8334H23.8333C21.8166 12.8334 20.1666 14.4834 20.1666 16.5001V25.6667H5.49992V11.0001C5.49992 9.99175 4.67492 9.16675 3.66659 9.16675C2.65825 9.16675 1.83325 9.99175 1.83325 11.0001V34.8334C1.83325 35.8417 2.65825 36.6667 3.66659 36.6667C4.67492 36.6667 5.49992 35.8417 5.49992 34.8334V31.1667H38.4999V34.8334C38.4999 35.8417 39.3249 36.6667 40.3333 36.6667C41.3416 36.6667 42.1666 35.8417 42.1666 34.8334V20.1667C42.1666 16.1151 38.8849 12.8334 34.8333 12.8334Z"
    fill="#F8F8F8"/>
</svg>
