<svg fill="none" height="44" viewBox="0 0 44 44" width="44" xmlns="http://www.w3.org/2000/svg">
  <path
    d="M33 1.83325C27.94 1.83325 23.8333 5.93992 23.8333 10.9999C23.8333 16.0599 27.94 20.1666 33 20.1666C38.06 20.1666 42.1667 16.0599 42.1667 10.9999C42.1667 5.93992 38.06 1.83325 33 1.83325ZM33 12.8333C32.4867 12.8333 32.0833 12.4299 32.0833 11.9166V6.41659C32.0833 5.90325 32.4867 5.49992 33 5.49992C33.5133 5.49992 33.9167 5.90325 33.9167 6.41659V11.9166C33.9167 12.4299 33.5133 12.8333 33 12.8333ZM33.9167 15.5833C33.9167 16.0966 33.5133 16.4999 33 16.4999C32.4867 16.4999 32.0833 16.0966 32.0833 15.5833C32.0833 15.0699 32.4867 14.6666 33 14.6666C33.5133 14.6666 33.9167 15.0699 33.9167 15.5833ZM35.75 36.6666C37.2533 36.6666 38.5 35.4383 38.5 33.9166V22.5866C36.575 23.5216 34.54 23.8516 32.835 23.8333C32.945 24.1266 33 24.4383 33 24.7499C33 26.2716 31.7717 27.4999 30.25 27.4999C28.7283 27.4999 27.5 26.2716 27.5 24.7499C27.5 24.0349 27.775 23.3933 28.215 22.8983C25.2279 21.6904 22.8013 19.4077 21.4133 16.4999H10.6517L12.5583 10.9999H20.1667C20.1667 9.73492 20.35 8.48825 20.6983 7.33325H11.9167C10.7067 7.33325 9.69833 8.10325 9.31333 9.18492L5.70167 19.5799C5.57333 19.9649 5.5 20.3683 5.5 20.7899V33.9166C5.5 35.4383 6.72833 36.6666 8.25 36.6666C9.77167 36.6666 11 35.4383 11 33.9166V32.9999H33V33.9166C33 35.4383 34.2467 36.6666 35.75 36.6666ZM13.75 27.4999C12.2283 27.4999 11 26.2716 11 24.7499C11 23.2283 12.2283 21.9999 13.75 21.9999C15.2717 21.9999 16.5 23.2283 16.5 24.7499C16.5 26.2716 15.2717 27.4999 13.75 27.4999Z"
    fill="#F8F8F8"/>
</svg>
