<svg fill="none" height="44" viewBox="0 0 44 44" width="44" xmlns="http://www.w3.org/2000/svg">
  <path
    d="M7.33335 2.93335C6.94437 2.93335 6.57131 3.08787 6.29626 3.36293C6.02121 3.63798 5.86668 4.01103 5.86668 4.40002V38.1334H4.40002C4.01103 38.1334 3.63798 38.2879 3.36293 38.5629C3.08787 38.838 2.93335 39.211 2.93335 39.6C2.93335 39.989 3.08787 40.3621 3.36293 40.6371C3.63798 40.9122 4.01103 41.0667 4.40002 41.0667H24.9333C25.3223 41.0667 25.6954 40.9122 25.9704 40.6371C26.2455 40.3621 26.4 39.989 26.4 39.6C26.4 39.211 26.2455 38.838 25.9704 38.5629C25.6954 38.2879 25.3223 38.1334 24.9333 38.1334H20.5333V29.6238L40.4096 16.2683C40.5695 16.1608 40.7066 16.0229 40.8132 15.8625C40.9198 15.702 40.9937 15.5221 41.0308 15.3331C41.0678 15.144 41.0673 14.9495 41.0291 14.7607C40.991 14.5719 40.916 14.3924 40.8085 14.2326L39.9902 13.0152C39.7732 12.6931 39.4373 12.4703 39.0562 12.3955C38.6751 12.3207 38.28 12.4001 37.9573 12.6163L20.5333 24.3174V5.86668H22C22.389 5.86668 22.7621 5.71216 23.0371 5.43711C23.3122 5.16205 23.4667 4.789 23.4667 4.40002C23.4667 4.01103 23.3122 3.63798 23.0371 3.36293C22.7621 3.08787 22.389 2.93335 22 2.93335H7.33335ZM8.80002 10.2667C8.80002 9.8777 8.95454 9.50465 9.22959 9.22959C9.50465 8.95454 9.8777 8.80002 10.2667 8.80002H16.1334C16.5223 8.80002 16.8954 8.95454 17.1704 9.22959C17.4455 9.50465 17.6 9.8777 17.6 10.2667V22C17.6 22.389 17.4455 22.7621 17.1704 23.0371C16.8954 23.3122 16.5223 23.4667 16.1334 23.4667H10.2667C9.8777 23.4667 9.50465 23.3122 9.22959 23.0371C8.95454 22.7621 8.80002 22.389 8.80002 22V10.2667Z"
    fill="#F8F8F8"/>
</svg>
