<svg fill="none" height="44" viewBox="0 0 44 44" width="44" xmlns="http://www.w3.org/2000/svg">
  <path
    d="M12.8333 16.5001V5.50009C12.8333 4.98064 13.0093 4.54492 13.3613 4.19292C13.7133 3.84092 14.1484 3.66553 14.6666 3.66675C15.186 3.66675 15.6218 3.84275 15.9738 4.19475C16.3258 4.54675 16.5011 4.98187 16.4999 5.50009V16.5001H18.3333V5.50009C18.3333 4.98064 18.5093 4.54492 18.8613 4.19292C19.2133 3.84092 19.6484 3.66553 20.1666 3.66675C20.686 3.66675 21.1218 3.84275 21.4738 4.19475C21.8258 4.54675 22.0011 4.98187 21.9999 5.50009V16.5001C21.9999 18.2112 21.4725 19.7084 20.4178 20.9918C19.363 22.2751 18.057 23.1306 16.4999 23.5584V38.5001C16.4999 39.0195 16.3239 39.4553 15.9719 39.8073C15.6199 40.1593 15.1848 40.3346 14.6666 40.3334C14.1471 40.3334 13.7114 40.1574 13.3594 39.8054C13.0074 39.4534 12.832 39.0183 12.8333 38.5001V23.5584C11.2749 23.1306 9.96837 22.2751 8.91359 20.9918C7.85881 19.7084 7.33203 18.2112 7.33325 16.5001V5.50009C7.33325 4.98064 7.50925 4.54492 7.86125 4.19292C8.21325 3.84092 8.64837 3.66553 9.16659 3.66675C9.68603 3.66675 10.1218 3.84275 10.4738 4.19475C10.8258 4.54675 11.0011 4.98187 10.9999 5.50009V16.5001H12.8333ZM31.1666 25.6668H27.4999C26.9805 25.6668 26.5448 25.4908 26.1928 25.1388C25.8408 24.7868 25.6654 24.3516 25.6666 23.8334V12.8334C25.6666 10.6945 26.4537 8.63203 28.0279 6.64592C29.6021 4.65981 31.2289 3.66675 32.9083 3.66675C33.4583 3.66675 33.9166 3.88064 34.2833 4.30842C34.6499 4.7362 34.8333 5.24037 34.8333 5.82092V38.5001C34.8333 39.0195 34.6573 39.4553 34.3053 39.8073C33.9533 40.1593 33.5181 40.3346 32.9999 40.3334C32.4805 40.3334 32.0448 40.1574 31.6928 39.8054C31.3408 39.4534 31.1654 39.0183 31.1666 38.5001V25.6668Z"
    fill="#F8F8F8"/>
</svg>
