<svg fill="none" height="44" viewBox="0 0 44 44" width="44" xmlns="http://www.w3.org/2000/svg">
  <g clip-path="url(#clip0_42_1919)">
    <path
      d="M22.0001 3.66675C32.1256 3.66675 40.3334 11.8746 40.3334 22.0001C40.3334 32.1256 32.1256 40.3334 22.0001 40.3334C11.8746 40.3334 3.66675 32.1256 3.66675 22.0001C3.66675 11.8746 11.8746 3.66675 22.0001 3.66675ZM22.0001 29.3334C21.5139 29.3334 21.0475 29.5266 20.7037 29.8704C20.3599 30.2142 20.1667 30.6805 20.1667 31.1667C20.1667 31.653 20.3599 32.1193 20.7037 32.4631C21.0475 32.8069 21.5139 33.0001 22.0001 33.0001C22.4863 33.0001 22.9526 32.8069 23.2964 32.4631C23.6403 32.1193 23.8334 31.653 23.8334 31.1667C23.8334 30.6805 23.6403 30.2142 23.2964 29.8704C22.9526 29.5266 22.4863 29.3334 22.0001 29.3334ZM22.0001 11.9167C20.2375 11.9167 18.5471 12.6169 17.3008 13.8633C16.0544 15.1096 15.3542 16.8 15.3542 18.5626C15.3542 19.0488 15.5474 19.5151 15.8912 19.8589C16.235 20.2028 16.7014 20.3959 17.1876 20.3959C17.6738 20.3959 18.1401 20.2028 18.4839 19.8589C18.8278 19.5151 19.0209 19.0488 19.0209 18.5626C19.0215 18.0218 19.1693 17.4914 19.4484 17.0282C19.7275 16.5651 20.1275 16.1866 20.6053 15.9334C21.0831 15.6803 21.6209 15.5619 22.1608 15.5911C22.7008 15.6203 23.2227 15.7959 23.6705 16.0991C24.1182 16.4023 24.475 16.8216 24.7026 17.3122C24.9302 17.8027 25.0199 18.346 24.9623 18.8837C24.9046 19.4213 24.7016 19.9332 24.3752 20.3643C24.0488 20.7954 23.6111 21.1296 23.1092 21.3309C21.8699 21.8259 20.1667 23.0946 20.1667 25.2084V25.6667C20.1667 26.153 20.3599 26.6193 20.7037 26.9631C21.0475 27.3069 21.5139 27.5001 22.0001 27.5001C22.4863 27.5001 22.9526 27.3069 23.2964 26.9631C23.6403 26.6193 23.8334 26.153 23.8334 25.6667C23.8334 25.2194 23.9251 24.9957 24.3119 24.8051L24.4714 24.7317C25.9029 24.1559 27.0895 23.1 27.8278 21.7451C28.566 20.3902 28.81 18.8207 28.5178 17.3056C28.2256 15.7906 27.4155 14.4243 26.2264 13.4411C25.0372 12.4579 23.5431 11.919 22.0001 11.9167Z"
      fill="#F8F8F8"/>
  </g>
  <defs>
    <clipPath id="clip0_42_1919">
      <rect fill="white" height="44" width="44"/>
    </clipPath>
  </defs>
</svg>
