<svg fill="none" height="60" viewBox="0 0 60 60" width="60" xmlns="http://www.w3.org/2000/svg">
  <path
    d="M47.5 44.25V48.75C47.5 49.0833 47.625 49.375 47.875 49.625C48.125 49.875 48.4167 50 48.75 50C49.0833 50 49.375 49.875 49.625 49.625C49.875 49.375 50 49.0833 50 48.75V41.25C50 40.9167 49.875 40.625 49.625 40.375C49.375 40.125 49.0833 40 48.75 40H41.25C40.9167 40 40.625 40.125 40.375 40.375C40.125 40.625 40 40.9167 40 41.25C40 41.5833 40.125 41.875 40.375 42.125C40.625 42.375 40.9167 42.5 41.25 42.5H45.75L39.625 48.625C39.375 48.875 39.25 49.1667 39.25 49.5C39.25 49.8333 39.375 50.125 39.625 50.375C39.875 50.625 40.1667 50.75 40.5 50.75C40.8333 50.75 41.125 50.625 41.375 50.375L47.5 44.25ZM45 57.5C41.5417 57.5 38.5933 56.2808 36.155 53.8425C33.7167 51.4042 32.4983 48.4567 32.5 45C32.5 41.5417 33.7192 38.5933 36.1575 36.155C38.5958 33.7167 41.5433 32.4983 45 32.5C48.4583 32.5 51.4067 33.7192 53.845 36.1575C56.2833 38.5958 57.5017 41.5433 57.5 45C57.5 48.4583 56.2808 51.4067 53.8425 53.845C51.4042 56.2833 48.4567 57.5017 45 57.5ZM20 22.5H40C40.7083 22.5 41.3025 22.26 41.7825 21.78C42.2625 21.3 42.5017 20.7067 42.5 20C42.5 19.2917 42.26 18.6975 41.78 18.2175C41.3 17.7375 40.7067 17.4983 40 17.5H20C19.2917 17.5 18.6975 17.74 18.2175 18.22C17.7375 18.7 17.4983 19.2933 17.5 20C17.5 20.7083 17.74 21.3025 18.22 21.7825C18.7 22.2625 19.2933 22.5017 20 22.5ZM29.1875 52.5H12.5C11.125 52.5 9.9475 52.01 8.9675 51.03C7.9875 50.05 7.49834 48.8733 7.5 47.5V12.5C7.5 11.125 7.99 9.9475 8.97 8.9675C9.95 7.9875 11.1267 7.49834 12.5 7.5H47.5C48.875 7.5 50.0525 7.99 51.0325 8.97C52.0125 9.95 52.5017 11.1267 52.5 12.5V29.25C51.2917 28.6667 50.0725 28.2292 48.8425 27.9375C47.6125 27.6458 46.3317 27.5 45 27.5C44.5417 27.5 44.1142 27.51 43.7175 27.53C43.3208 27.55 42.915 27.6025 42.5 27.6875C42.125 27.6042 41.7083 27.5525 41.25 27.5325C40.7917 27.5125 40.375 27.5017 40 27.5H20C19.2917 27.5 18.6975 27.74 18.2175 28.22C17.7375 28.7 17.4983 29.2933 17.5 30C17.5 30.7083 17.74 31.3025 18.22 31.7825C18.7 32.2625 19.2933 32.5017 20 32.5H32.8125C32.0625 33.2083 31.385 33.9792 30.78 34.8125C30.175 35.6458 29.6442 36.5417 29.1875 37.5H20C19.2917 37.5 18.6975 37.74 18.2175 38.22C17.7375 38.7 17.4983 39.2933 17.5 40C17.5 40.7083 17.74 41.3025 18.22 41.7825C18.7 42.2625 19.2933 42.5017 20 42.5H27.6875C27.6042 42.9167 27.5517 43.3233 27.53 43.72C27.5083 44.1167 27.4983 44.5433 27.5 45C27.5 46.375 27.625 47.6567 27.875 48.845C28.125 50.0333 28.5625 51.2517 29.1875 52.5Z"
    fill="white"/>
</svg>
