<svg fill="none" height="60" viewBox="0 0 60 60" width="60" xmlns="http://www.w3.org/2000/svg">
  <path clip-rule="evenodd" d="M12.5 5C10.5109 5 8.60322 5.79018 7.1967 7.1967C5.79018 8.60322 5 10.5109 5 12.5V47.5C5 49.4891 5.79018 51.3968 7.1967 52.8033C8.60322 54.2098 10.5109 55 12.5 55H35V42.5C35 40.5109 35.7902 38.6032 37.1967 37.1967C38.6032 35.7902 40.5109 35 42.5 35H55V12.5C55 10.5109 54.2098 8.60322 52.8033 7.1967C51.3968 5.79018 49.4891 5 47.5 5H12.5ZM43.2325 52.8025C42.3338 53.7011 41.2215 54.3566 40 54.7075V42.5C40 41.837 40.2634 41.2011 40.7322 40.7322C41.2011 40.2634 41.837 40 42.5 40H54.7075C54.3566 41.2215 53.7011 42.3338 52.8025 43.2325L43.2325 52.8025ZM17.5 15C16.837 15 16.2011 15.2634 15.7322 15.7322C15.2634 16.2011 15 16.837 15 17.5C15 18.163 15.2634 18.7989 15.7322 19.2678C16.2011 19.7366 16.837 20 17.5 20H42.5C43.163 20 43.7989 19.7366 44.2678 19.2678C44.7366 18.7989 45 18.163 45 17.5C45 16.837 44.7366 16.2011 44.2678 15.7322C43.7989 15.2634 43.163 15 42.5 15H17.5ZM17.5 25C16.837 25 16.2011 25.2634 15.7322 25.7322C15.2634 26.2011 15 26.837 15 27.5C15 28.163 15.2634 28.7989 15.7322 29.2678C16.2011 29.7366 16.837 30 17.5 30H42.5C43.163 30 43.7989 29.7366 44.2678 29.2678C44.7366 28.7989 45 28.163 45 27.5C45 26.837 44.7366 26.2011 44.2678 25.7322C43.7989 25.2634 43.163 25 42.5 25H17.5ZM17.5 35C16.837 35 16.2011 35.2634 15.7322 35.7322C15.2634 36.2011 15 36.837 15 37.5C15 38.163 15.2634 38.7989 15.7322 39.2678C16.2011 39.7366 16.837 40 17.5 40H27.5C28.163 40 28.7989 39.7366 29.2678 39.2678C29.7366 38.7989 30 38.163 30 37.5C30 36.837 29.7366 36.2011 29.2678 35.7322C28.7989 35.2634 28.163 35 27.5 35H17.5Z"
        fill="#F8F8F8"
        fill-rule="evenodd"/>
</svg>
