<svg fill="none" height="44" viewBox="0 0 44 44" width="44" xmlns="http://www.w3.org/2000/svg">
  <g clip-path="url(#clip0_42_1937)">
    <mask height="44" id="mask0_42_1937" maskUnits="userSpaceOnUse" style="mask-type:luminance" width="44" x="0" y="0">
      <path d="M0 0H44V44H0V0Z" fill="white"/>
      <path
        d="M28.2546 24.1695C28.4162 24.3237 28.5456 24.5084 28.6355 24.7129C28.7253 24.9173 28.7738 25.1376 28.7782 25.3609C28.7825 25.5842 28.7426 25.8061 28.6607 26.0139C28.5789 26.2217 28.4567 26.4113 28.3013 26.5716C28.1458 26.732 27.9602 26.86 27.755 26.9483C27.5499 27.0365 27.3293 27.0833 27.1059 27.0859C26.8826 27.0885 26.661 27.0469 26.4538 26.9635C26.2467 26.88 26.0581 26.7564 25.8989 26.5997C25.8438 26.5463 25.7862 26.4954 25.7263 26.4474C25.4058 26.2003 25.0505 26.0018 24.672 25.8585C23.9054 25.5538 22.9797 25.3846 21.9998 25.3846C20.4531 25.3846 19.0671 25.8094 18.2734 26.4491C18.2108 26.4998 18.1532 26.5489 18.1008 26.5997C17.9416 26.7564 17.753 26.88 17.5458 26.9635C17.3387 27.0469 17.1171 27.0885 16.8937 27.0859C16.6704 27.0833 16.4498 27.0365 16.2446 26.9483C16.0395 26.86 15.8538 26.732 15.6984 26.5716C15.5429 26.4113 15.4208 26.2217 15.3389 26.0139C15.2571 25.8061 15.2172 25.5842 15.2215 25.3609C15.2259 25.1376 15.2743 24.9173 15.3642 24.7129C15.4541 24.5084 15.5835 24.3237 15.7451 24.1695C15.8737 24.046 16.0091 23.9258 16.1512 23.8108C17.5897 22.6549 19.7237 22 21.9998 22C23.3994 22 24.7481 22.2471 25.9192 22.7108C26.6469 22.9985 27.2984 23.3691 27.8484 23.8108C27.9906 23.9258 28.126 24.046 28.2546 24.1695Z"
        fill="black"/>
      <path
        d="M32.5142 19.7813C32.674 19.9389 32.8008 20.1267 32.8872 20.3337C32.9737 20.5408 33.0181 20.763 33.0179 20.9874C33.0177 21.2118 32.9729 21.4339 32.886 21.6408C32.7992 21.8477 32.6721 22.0353 32.5121 22.1926C32.352 22.3499 32.1623 22.4739 31.954 22.5572C31.7456 22.6405 31.5228 22.6816 31.2984 22.678C31.0741 22.6743 30.8526 22.6262 30.6471 22.5362C30.4415 22.4462 30.2559 22.3162 30.101 22.1539C29.9332 21.9843 29.757 21.8233 29.573 21.6716C29.1662 21.3412 28.732 21.0463 28.275 20.7899C27.7704 20.5062 27.2428 20.2656 26.6978 20.0706C26.1151 19.8577 25.5171 19.6891 24.909 19.5663C24.2745 19.4352 23.6315 19.3486 22.9848 19.3074C22.0025 19.2429 21.0161 19.2757 20.0402 19.4056C19.4105 19.4907 18.7874 19.6191 18.1753 19.7897C17.5969 19.9535 17.0313 20.1594 16.483 20.4057C15.9804 20.6356 15.4971 20.9056 15.0378 21.2129C14.8271 21.3556 14.6232 21.5081 14.4268 21.6699C14.2428 21.8222 14.0665 21.9837 13.8989 22.1539C13.744 22.3162 13.5584 22.4462 13.3528 22.5362C13.1472 22.6262 12.9258 22.6743 12.7014 22.678C12.4771 22.6816 12.2542 22.6405 12.0459 22.5572C11.8375 22.4739 11.6478 22.3499 11.4878 22.1926C11.3278 22.0353 11.2007 21.8477 11.1138 21.6408C11.027 21.4339 10.9821 21.2118 10.9819 20.9874C10.9817 20.763 11.0262 20.5408 11.1126 20.3337C11.1991 20.1267 11.3259 19.9389 11.4856 19.7813C11.731 19.5325 11.9916 19.2939 12.2675 19.0637C13.1246 18.3634 14.0703 17.779 15.0801 17.3257C15.7836 17.0045 16.5113 16.7391 17.2564 16.532C18.0217 16.3159 18.8016 16.1553 19.5901 16.0514C20.3888 15.9434 21.1939 15.8897 21.9999 15.8906C22.8059 15.8911 23.6109 15.9448 24.4098 16.0514C25.1984 16.1575 25.9787 16.3181 26.7452 16.532C27.4885 16.7428 28.2154 17.0081 28.9198 17.3257C29.5969 17.6351 30.2478 17.999 30.8659 18.4139C31.4587 18.8147 32.0108 19.2727 32.5142 19.7813Z"
        fill="black"/>
      <path
        d="M35.953 15.6063C36.2377 15.9428 36.38 16.3771 36.3495 16.8168C36.319 17.2565 36.1181 17.667 35.7896 17.9609C35.4611 18.2548 35.0309 18.4089 34.5905 18.3905C34.15 18.3721 33.7342 18.1825 33.4314 17.8622C33.1876 17.5903 32.93 17.331 32.6597 17.0854C32.3782 16.8289 32.0846 16.5861 31.7797 16.3577C31.1316 15.8785 30.4437 15.4556 29.7236 15.0936C28.9576 14.7094 28.1605 14.3907 27.3408 14.1408C26.4878 13.8753 25.6153 13.6773 24.7313 13.5485C23.827 13.4152 22.914 13.3496 21.9999 13.3522C21.0858 13.3521 20.173 13.4183 19.2685 13.5502C18.385 13.6818 17.5127 13.8798 16.659 14.1425C15.8413 14.3972 15.0451 14.7164 14.2779 15.097C13.9112 15.2804 13.5527 15.4798 13.2033 15.6943C12.8662 15.901 12.5386 16.1229 12.2217 16.3594C11.9169 16.5877 11.6232 16.8306 11.3417 17.0871C11.0708 17.3332 10.8127 17.5931 10.5683 17.8656C10.2677 18.1952 9.84909 18.3927 9.40355 18.4153C8.95801 18.4378 8.52159 18.2835 8.18922 17.9859C7.85686 17.6884 7.65543 17.2716 7.62876 16.8263C7.60209 16.381 7.75233 15.9432 8.04681 15.608C8.69682 14.8872 9.41549 14.2315 10.1927 13.65C11.4175 12.7418 12.7556 11.9971 14.173 11.4348C15.1529 11.0413 16.1632 10.7278 17.1937 10.4973C18.2424 10.2591 19.3077 10.1013 20.3803 10.0251C21.9976 9.90791 23.6228 9.96749 25.2271 10.2028C26.2825 10.3596 27.3246 10.5961 28.3443 10.9102C29.3383 11.2195 30.306 11.6078 31.2382 12.0711C32.1383 12.5226 32.9978 13.0509 33.8071 13.65C34.5869 14.2289 35.3064 14.8849 35.9547 15.608L35.953 15.6063ZM25.3845 30.8845C25.3845 31.7822 25.0279 32.643 24.3932 33.2778C23.7584 33.9125 22.8975 34.2691 21.9999 34.2691C21.1022 34.2691 20.2413 33.9125 19.6066 33.2778C18.9719 32.643 18.6153 31.7822 18.6153 30.8845C18.6153 29.9868 18.9719 29.126 19.6066 28.4912C20.2413 27.8565 21.1022 27.4999 21.9999 27.4999C22.8975 27.4999 23.7584 27.8565 24.3932 28.4912C25.0279 29.126 25.3845 29.9868 25.3845 30.8845Z"
        fill="black"/>
    </mask>
    <g mask="url(#mask0_42_1937)">
      <path
        d="M22 44C34.1503 44 44 34.1503 44 22C44 9.84974 34.1503 0 22 0C9.84974 0 0 9.84974 0 22C0 34.1503 9.84974 44 22 44Z"
        fill="#F8F8F8"/>
    </g>
  </g>
  <defs>
    <clipPath id="clip0_42_1937">
      <rect fill="white" height="44" width="44"/>
    </clipPath>
  </defs>
</svg>
