<svg fill="none" height="44" viewBox="0 0 44 44" width="44" xmlns="http://www.w3.org/2000/svg">
  <path
    d="M30.3527 23.6608L29.5185 24.4913C29.5185 24.4913 27.533 26.464 22.1155 21.0776C16.698 15.6913 18.6835 13.7186 18.6835 13.7186L19.2079 13.1943C20.504 11.9073 20.6269 9.8393 19.4957 8.32863L17.1857 5.24313C15.785 3.37313 13.0809 3.12563 11.4767 4.72063L8.59836 7.58063C7.80452 8.37263 7.27286 9.39563 7.33702 10.5323C7.50202 13.4418 8.81836 19.699 16.159 26.9993C23.9452 34.7396 31.251 35.0476 34.2375 34.769C35.1835 34.681 36.0049 34.2006 36.6667 33.5406L39.27 30.952C41.03 29.2048 40.535 26.2073 38.2837 24.9845L34.782 23.0796C33.3044 22.2766 31.5077 22.5131 30.3527 23.6608Z"
    fill="#F8F8F8"/>
</svg>
