<svg fill="none" height="44" viewBox="0 0 44 44" width="44" xmlns="http://www.w3.org/2000/svg">
  <path clip-rule="evenodd" d="M16.0416 3.66675H17.8749C23.0596 3.66675 25.6538 3.66675 27.2634 5.27825C28.8749 6.88791 28.8749 9.48208 28.8749 14.6667V29.7917H31.7551C33.9624 29.7917 35.7499 31.5793 35.7499 33.7866V33.9167C35.7499 34.2814 35.8948 34.6312 36.1526 34.889C36.4105 35.1469 36.7602 35.2917 37.1249 35.2917C37.4896 35.2917 37.8393 35.1469 38.0972 34.889C38.3551 34.6312 38.4999 34.2814 38.4999 33.9167V25.2084L36.2559 24.4604C35.7083 24.278 35.2319 23.9279 34.8943 23.4597C34.5567 22.9914 34.375 22.4288 34.3749 21.8516V17.4167C34.3749 16.6874 34.6647 15.9879 35.1804 15.4722C35.6961 14.9565 36.3956 14.6667 37.1249 14.6667H38.4999V13.9737C38.4999 13.6346 38.4999 13.5191 38.4944 13.4127C38.4334 12.322 37.9422 11.3001 37.1286 10.5711C36.9868 10.4489 36.8419 10.3303 36.6941 10.2154L34.4336 8.40775C34.2901 8.29591 34.1702 8.1567 34.0809 7.99818C33.9915 7.83967 33.9346 7.665 33.9132 7.48431C33.8919 7.30362 33.9067 7.12049 33.9566 6.94554C34.0066 6.77059 34.0908 6.60729 34.2044 6.46512C34.3179 6.32295 34.4585 6.20473 34.6181 6.1173C34.7777 6.02988 34.953 5.975 35.1339 5.95583C35.3149 5.93667 35.4978 5.9536 35.6722 6.00566C35.8465 6.05771 36.0088 6.14385 36.1496 6.25908L38.4413 8.09241C38.6649 8.27208 38.8189 8.39492 38.9638 8.52508C40.3187 9.7397 41.1369 11.4419 41.2389 13.2587C41.2499 13.4512 41.2499 13.6492 41.2499 13.9371V33.9167C41.2499 35.0108 40.8153 36.06 40.0417 36.8336C39.2681 37.6072 38.2189 38.0417 37.1249 38.0417C36.0309 38.0417 34.9817 37.6072 34.2081 36.8336C33.4345 36.06 32.9999 35.0108 32.9999 33.9167V33.7866C32.9999 33.4564 32.8688 33.1398 32.6353 32.9064C32.4019 32.6729 32.0852 32.5417 31.7551 32.5417H28.8749V38.9584H30.9338C31.2984 38.9584 31.6482 39.1033 31.906 39.3611C32.1639 39.619 32.3088 39.9687 32.3088 40.3334C32.3088 40.6981 32.1639 41.0478 31.906 41.3057C31.6482 41.5635 31.2984 41.7084 30.9338 41.7084H3.20825C2.84358 41.7084 2.49384 41.5635 2.23598 41.3057C1.97812 41.0478 1.83325 40.6981 1.83325 40.3334C1.83325 39.9687 1.97812 39.619 2.23598 39.3611C2.49384 39.1033 2.84358 38.9584 3.20825 38.9584H5.04159V14.6667C5.04159 9.48208 5.04159 6.88791 6.65309 5.27825C8.26275 3.66675 10.8569 3.66675 16.0416 3.66675ZM12.8333 29.7917C12.4686 29.7917 12.1188 29.9366 11.861 30.1945C11.6031 30.4523 11.4583 30.8021 11.4583 31.1667C11.4583 31.5314 11.6031 31.8812 11.861 32.139C12.1188 32.3969 12.4686 32.5417 12.8333 32.5417H21.9999C22.3646 32.5417 22.7143 32.3969 22.9722 32.139C23.2301 31.8812 23.3749 31.5314 23.3749 31.1667C23.3749 30.8021 23.2301 30.4523 22.9722 30.1945C22.7143 29.9366 22.3646 29.7917 21.9999 29.7917H12.8333ZM20.1666 11.0001H14.6666C12.9378 11.0001 12.0743 11.0001 11.5371 11.5372C10.9999 12.0744 10.9999 12.9379 10.9999 14.6667C10.9999 16.3956 10.9999 17.2591 11.5371 17.7962C12.0743 18.3334 12.9378 18.3334 14.6666 18.3334H20.1666C21.8954 18.3334 22.7589 18.3334 23.2961 17.7962C23.8333 17.2591 23.8333 16.3956 23.8333 14.6667C23.8333 12.9379 23.8333 12.0744 23.2961 11.5372C22.7589 11.0001 21.8954 11.0001 20.1666 11.0001Z"
        fill="#F8F8F8"
        fill-rule="evenodd"/>
</svg>
