<svg fill="none" height="60" viewBox="0 0 60 60" width="60" xmlns="http://www.w3.org/2000/svg">
  <path
    d="M17.5 45C14.75 45 12.525 47.25 12.525 50C12.525 52.75 14.75 55 17.5 55C20.25 55 22.5 52.75 22.5 50C22.5 47.25 20.25 45 17.5 45ZM5 10H7.5L16.5 28.975L13.125 35.075C11.3 38.425 13.7 42.5 17.5 42.5H45C46.375 42.5 47.5 41.375 47.5 40C47.5 38.625 46.375 37.5 45 37.5H17.5L20.25 32.5H38.875C40.75 32.5 42.4 31.475 43.25 29.925L52.2 13.7C52.4107 13.3211 52.5188 12.8937 52.5136 12.4601C52.5084 12.0266 52.3901 11.6019 52.1704 11.2282C51.9506 10.8544 51.6371 10.5445 51.2608 10.329C50.8846 10.1136 50.4586 10.0002 50.025 10H13.025L11.35 6.425C11.1491 5.99827 10.8307 5.6376 10.4323 5.38524C10.0338 5.13287 9.57167 4.99924 9.1 5H5C3.625 5 2.5 6.125 2.5 7.5C2.5 8.875 3.625 10 5 10ZM42.5 45C39.75 45 37.525 47.25 37.525 50C37.525 52.75 39.75 55 42.5 55C45.25 55 47.5 52.75 47.5 50C47.5 47.25 45.25 45 42.5 45Z"
    fill="#F8F8F8"/>
</svg>
