<svg fill="none" height="44" viewBox="0 0 44 44" width="44" xmlns="http://www.w3.org/2000/svg">
  <path
    d="M35.75 30.8V10.45C35.75 7.7 33.55 5.5 30.8 5.5H24.75V2.75H30.25V0H13.75V2.75H19.25V5.5H13.2C10.45 5.5 8.25 7.7 8.25 10.45V30.8C8.25 33.55 10.45 35.75 13.2 35.75H13.75L11.825 38.5H8.25V41.25H10.175L8.25 44H13.75L15.4 41.25H28.875L30.525 44H36.025L34.1 41.25H35.75V38.5H32.175L30.25 35.75H30.8C33.55 35.75 35.75 33.55 35.75 30.8ZM11 10.725C11 9.35 12.1 8.25 13.475 8.25H30.25C31.9 8.25 33 9.35 33 10.725V16.5C33 18.15 31.9 19.25 30.525 19.25H13.475C12.1 19.25 11 18.15 11 16.775V10.725ZM11 30.25C11 28.6 12.1 27.5 13.75 27.5C15.4 27.5 16.5 28.6 16.5 30.25C16.5 31.9 15.4 33 13.75 33C12.1 33 11 31.9 11 30.25ZM27.225 38.5H16.775L18.425 35.75H25.575L27.225 38.5ZM27.5 30.25C27.5 28.6 28.6 27.5 30.25 27.5C31.9 27.5 33 28.6 33 30.25C33 31.9 31.9 33 30.25 33C28.6 33 27.5 31.9 27.5 30.25Z"
    fill="#F8F8F8"/>
</svg>
