<svg width="512" height="512" viewBox="0 0 512 512" fill="none" xmlns="http://www.w3.org/2000/svg">
<g clip-path="url(#clip0_58_3078)">
<path d="M255.549 406.341C367.646 406.341 458.519 315.469 458.519 203.371C458.519 91.2734 367.646 0.400391 255.549 0.400391C143.451 0.400391 52.5781 91.2734 52.5781 203.371C52.5781 315.469 143.451 406.341 255.549 406.341Z" fill="#FFD15C"/>
<path d="M91.1184 322.114L21.2812 443.172L102.791 438.845L139.823 511.6L204.428 399.599C158.138 387.624 118.389 359.75 91.1184 322.114Z" fill="#40596B"/>
<path d="M420.38 321.511C393.311 359.247 353.562 387.222 307.373 399.398L372.179 511.601L409.211 438.845L490.721 443.172L420.38 321.511Z" fill="#40596B"/>
<path d="M255.549 350.492C336.801 350.492 402.67 284.624 402.67 203.371C402.67 122.118 336.801 56.25 255.549 56.25C174.296 56.25 108.428 122.118 108.428 203.371C108.428 284.624 174.296 350.492 255.549 350.492Z" fill="#F8B64C"/>
<path d="M356.379 187.471C360.907 183.043 358.392 175.295 352.153 174.389L294.089 165.936C291.573 165.534 289.46 164.024 288.353 161.71L262.391 109.08C259.573 103.344 251.422 103.344 248.604 109.08L222.742 161.71C221.636 163.924 219.422 165.534 217.007 165.936L158.943 174.389C152.704 175.295 150.188 183.043 154.717 187.471L196.679 228.427C198.491 230.239 199.296 232.754 198.893 235.17L189.031 292.931C187.925 299.17 194.566 304 200.201 300.982L252.126 273.711C254.34 272.503 257.057 272.503 259.271 273.711L311.196 300.982C316.831 303.9 323.372 299.17 322.366 292.931L312.404 235.17C312.001 232.654 312.806 230.138 314.618 228.427L356.379 187.471Z" fill="white"/>
</g>
<defs>
<clipPath id="clip0_58_3078">
<rect width="511.2" height="511.2" fill="white" transform="translate(0.400391 0.400391)"/>
</clipPath>
</defs>
</svg>
