<svg width="512" height="512" viewBox="0 0 512 512" fill="none" xmlns="http://www.w3.org/2000/svg">
<path d="M428.802 238.348C436.849 214.523 435.512 188.527 425.062 165.653C414.612 142.78 395.835 124.751 372.556 115.238C349.278 105.725 323.248 105.444 299.77 114.452C276.291 123.459 257.129 141.079 246.188 163.721C236.195 158.075 225.05 154.774 213.594 154.066C202.139 153.357 190.672 155.261 180.06 159.633C169.448 164.004 159.967 170.73 152.335 179.301C144.702 187.872 139.116 198.066 135.999 209.112C122.347 205.356 108.049 204.564 94.065 206.789C80.0813 209.014 66.7352 214.204 54.9226 222.011C43.11 229.819 33.1041 240.063 25.5765 252.056C18.0489 264.049 13.1738 277.513 11.2783 291.545C9.38285 305.577 10.5109 319.853 14.5868 333.413C18.6627 346.973 25.5921 359.505 34.9099 370.167C44.2278 380.828 55.7184 389.374 68.6107 395.229C81.503 401.084 95.4987 404.114 109.658 404.115H418.398C439.567 404.119 459.941 396.054 475.373 381.564C490.805 367.073 500.133 347.245 501.459 326.118C502.785 304.991 496.009 284.152 482.51 267.846C469.011 251.54 449.805 240.991 428.802 238.348Z" fill="#80CDF6"/>
</svg>
