<svg width="357" height="714" viewBox="0 0 357 714" fill="none" xmlns="http://www.w3.org/2000/svg">
  <path d="M-2.12789e-05 4.25577e-05C46.8819 4.25577e-05 93.3047 9.23412 136.618 27.175C179.931 45.116 219.287 71.4124 252.437 104.563C285.588 137.713 311.884 177.069 329.825 220.382C347.766 263.695 357 310.118 357 357C357 403.882 347.766 450.305 329.825 493.618C311.884 536.931 285.588 576.287 252.437 609.437C219.287 642.588 179.931 668.884 136.618 686.825C93.3047 704.766 46.8819 714 -5.24888e-05 714L-2.12789e-05 357L-2.12789e-05 4.25577e-05Z" fill="#FFEE99" fill-opacity="0.686275"/>
</svg>
