<svg width="357" height="714" viewBox="0 0 357 714" fill="none" xmlns="http://www.w3.org/2000/svg">
  <path
    d="M357 714C310.118 714 263.695 704.766 220.382 686.825C177.069 668.884 137.713 642.588 104.563 609.437C71.4124 576.287 45.116 536.931 27.175 493.618C9.23412 450.305 4.05084e-05 403.882 4.25577e-05 357C4.4607e-05 310.118 9.23412 263.695 27.1751 220.382C45.116 177.069 71.4124 137.713 104.563 104.563C137.713 71.4123 177.069 45.1159 220.382 27.175C263.695 9.23407 310.118 -4.09855e-06 357 0L357 357L357 714Z"
    fill="#8BDFFEFF"/>
</svg>
