<svg width="512" height="512" viewBox="0 0 512 512" fill="none" xmlns="http://www.w3.org/2000/svg">
<path d="M256.187 400.027C275.961 400.015 295.518 395.912 313.63 387.977C331.741 380.043 348.015 368.447 361.429 353.919L362.388 353.199C384.644 328.835 397.846 297.56 399.78 264.618C401.714 231.676 392.262 199.07 373.01 172.27C353.757 145.469 325.875 126.103 294.039 117.419C262.204 108.736 228.35 111.262 198.156 124.576C167.962 137.889 143.264 161.18 128.204 190.542C113.143 219.903 108.637 253.551 115.439 285.841C122.242 318.131 139.941 347.1 165.567 367.89C191.193 388.68 223.188 400.027 256.187 400.027ZM129.05 269.533L202.328 349.444L214.154 338.576L138 255.629L150.945 258.426C191.78 267.296 228.219 301.737 237.488 340.174L248.196 384.045C217.998 382.142 189.453 369.592 167.637 348.625C145.821 327.657 132.148 299.632 129.05 269.533ZM264.178 384.045L274.647 340.574C283.916 302.137 320.355 267.695 361.189 258.825L374.135 256.028L298.22 338.656L310.047 349.523L383.325 269.613C380.208 299.698 366.528 327.704 344.714 348.655C322.9 369.606 294.364 382.145 264.178 384.045ZM256.187 128.332C286.844 128.369 316.467 139.42 339.657 159.472C362.847 179.523 378.061 207.239 382.525 237.569L358.073 242.763C311.485 252.912 270.172 292.308 259.384 336.498L256.187 349.683L252.991 336.498C242.363 292.308 200.889 252.912 154.302 242.763L129.849 237.569C134.313 207.239 149.527 179.523 172.717 159.472C195.908 139.42 225.53 128.369 256.187 128.332Z" fill="#FBAF5B"/>
<path d="M32.4383 208.242C30.3189 208.242 28.2864 209.084 26.7878 210.582C25.2892 212.081 24.4473 214.114 24.4473 216.233V296.143C24.4473 298.263 25.2892 300.295 26.7878 301.794C28.2864 303.292 30.3189 304.134 32.4383 304.134H62.2448C67.0288 323.627 74.7628 342.275 85.1791 359.432L64.4024 380.529C63.629 381.274 63.0139 382.168 62.5937 383.156C62.1735 384.145 61.957 385.208 61.957 386.282C61.957 387.356 62.1735 388.419 62.5937 389.408C63.0139 390.397 63.629 391.29 64.4024 392.036L120.34 447.973C121.837 449.461 123.862 450.297 125.973 450.297C128.084 450.297 130.11 449.461 131.607 447.973L152.703 426.877C169.915 437.427 188.647 445.27 208.241 450.13V479.937C208.241 482.056 209.083 484.089 210.581 485.588C212.08 487.086 214.113 487.928 216.232 487.928H296.142C298.262 487.928 300.294 487.086 301.793 485.588C303.291 484.089 304.133 482.056 304.133 479.937V450.13C323.626 445.347 342.274 437.613 359.431 427.196L380.528 447.973C381.273 448.746 382.167 449.361 383.155 449.782C384.144 450.202 385.207 450.418 386.281 450.418C387.355 450.418 388.418 450.202 389.407 449.782C390.396 449.361 391.289 448.746 392.035 447.973L447.972 392.036C449.46 390.538 450.296 388.513 450.296 386.402C450.296 384.291 449.46 382.266 447.972 380.768L427.195 359.432C437.612 342.275 445.346 323.627 450.129 304.134H479.936C482.055 304.134 484.088 303.292 485.587 301.794C487.085 300.295 487.927 298.263 487.927 296.143V216.233C487.927 214.114 487.085 212.081 485.587 210.582C484.088 209.084 482.055 208.242 479.936 208.242H450.129C445.346 188.749 437.612 170.101 427.195 152.944L447.972 131.848C448.745 131.102 449.36 130.209 449.781 129.22C450.201 128.231 450.417 127.168 450.417 126.094C450.417 125.02 450.201 123.957 449.781 122.968C449.36 121.98 448.745 121.086 447.972 120.341L392.035 64.4034C390.537 62.9151 388.512 62.0797 386.401 62.0797C384.29 62.0797 382.265 62.9151 380.767 64.4034L359.431 85.1801C342.274 74.7637 323.626 67.0298 304.133 62.2458V32.4393C304.133 30.3199 303.291 28.2874 301.793 26.7888C300.294 25.2902 298.262 24.4482 296.142 24.4482H216.232C214.113 24.4482 212.08 25.2902 210.581 26.7888C209.083 28.2874 208.241 30.3199 208.241 32.4393V62.2458C188.748 67.0298 170.1 74.7637 152.943 85.1801L131.847 64.4034C131.101 63.63 130.208 63.0148 129.219 62.5947C128.23 62.1745 127.167 61.9579 126.093 61.9579C125.019 61.9579 123.956 62.1745 122.967 62.5947C121.979 63.0148 121.085 63.63 120.34 64.4034L64.4024 120.341C62.9141 121.838 62.0787 123.863 62.0787 125.974C62.0787 128.085 62.9141 130.111 64.4024 131.608L85.4987 152.704C74.9483 169.916 67.1055 188.648 62.2448 208.242H32.4383ZM76.389 217.911C81.0566 195.94 89.7538 175.024 102.04 156.22C103.056 154.68 103.508 152.836 103.318 151.001C103.129 149.165 102.31 147.452 101.001 146.152L81.0238 126.254L126.253 81.0247L146.151 101.002C147.451 102.311 149.164 103.13 151 103.319C152.835 103.509 154.679 103.057 156.219 102.041C175.023 89.7547 195.939 81.0576 217.91 76.3899C219.728 76.0001 221.352 74.9888 222.504 73.5303C223.657 72.0718 224.264 70.2572 224.223 68.3989V40.4303H288.151V68.6386C288.11 70.4969 288.718 72.3115 289.87 73.77C291.022 75.2286 292.647 76.2398 294.464 76.6297C316.435 81.2974 337.352 89.9945 356.155 102.281C357.695 103.297 359.539 103.748 361.375 103.559C363.21 103.37 364.923 102.551 366.224 101.242L386.121 81.2645L431.351 126.494L411.373 146.391C410.064 147.692 409.245 149.405 409.056 151.24C408.867 153.076 409.318 154.92 410.334 156.46C422.621 175.263 431.318 196.18 435.985 218.151C436.375 219.968 437.386 221.593 438.845 222.745C440.304 223.897 442.118 224.505 443.976 224.464H471.945V288.392H443.737C441.878 288.351 440.064 288.958 438.605 290.111C437.147 291.263 436.136 292.888 435.746 294.705C431.078 316.676 422.381 337.592 410.094 356.396C409.079 357.936 408.627 359.78 408.816 361.615C409.006 363.451 409.824 365.164 411.133 366.464L431.111 386.362L385.882 431.591L365.984 411.614C364.684 410.305 362.97 409.486 361.135 409.297C359.3 409.107 357.455 409.559 355.915 410.575C337.112 422.861 316.196 431.558 294.224 436.226C292.407 436.616 290.782 437.627 289.63 439.086C288.478 440.544 287.87 442.359 287.912 444.217V471.946H224.223V443.738C224.264 441.879 223.657 440.065 222.504 438.606C221.352 437.148 219.728 436.137 217.91 435.747C195.939 431.079 175.023 422.382 156.219 410.095C154.679 409.08 152.835 408.628 151 408.817C149.164 409.007 147.451 409.825 146.151 411.134L126.253 431.112L81.0238 385.883L101.001 365.985C102.31 364.685 103.129 362.971 103.318 361.136C103.508 359.301 103.056 357.456 102.04 355.916C89.7809 337.186 81.0847 316.353 76.389 294.465C75.9991 292.648 74.9879 291.023 73.5293 289.871C72.0708 288.719 70.2562 288.111 68.3979 288.152H40.4293V224.224H68.6377C70.455 224.21 72.2132 223.577 73.6224 222.429C75.0315 221.282 76.0074 219.688 76.389 217.911Z" fill="#FBAF5B"/>
<path d="M180.992 247.477L252.911 279.442C253.942 279.905 255.058 280.144 256.188 280.144C257.317 280.144 258.434 279.905 259.464 279.442L331.383 247.477C332.785 246.847 333.976 245.826 334.812 244.536C335.648 243.246 336.095 241.743 336.098 240.206V176.277C336.095 174.74 335.648 173.237 334.812 171.947C333.976 170.657 332.785 169.636 331.383 169.006L259.464 137.041C258.434 136.578 257.317 136.339 256.188 136.339C255.058 136.339 253.942 136.578 252.911 137.041L180.992 169.006C179.59 169.636 178.4 170.657 177.563 171.947C176.727 173.237 176.281 174.74 176.277 176.277V240.206C176.281 241.743 176.727 243.246 177.563 244.536C178.4 245.826 179.59 246.847 180.992 247.477ZM192.259 188.584L248.197 213.436V259.864L192.259 235.011V188.584ZM264.179 259.864V213.436L320.116 188.584V235.011L264.179 259.864ZM256.188 153.023L308.449 176.277L256.188 199.531L203.926 176.277L256.188 153.023Z" fill="#FBAF5B"/>
</svg>
