<svg width="41" height="40" viewBox="0 0 41 40" fill="none" xmlns="http://www.w3.org/2000/svg">
<g clip-path="url(#clip0_461_2066)">
<path fill-rule="evenodd" clip-rule="evenodd" d="M0.5 26.25C0.5 25.2554 0.895088 24.3016 1.59835 23.5983C2.30161 22.8951 3.25544 22.5 4.25 22.5H6.75C7.74456 22.5 8.69839 22.8951 9.40165 23.5983C10.1049 24.3016 10.5 25.2554 10.5 26.25V28.75C10.5 29.7446 10.1049 30.6984 9.40165 31.4017C8.69839 32.1049 7.74456 32.5 6.75 32.5H4.25C3.25544 32.5 2.30161 32.1049 1.59835 31.4017C0.895088 30.6984 0.5 29.7446 0.5 28.75L0.5 26.25ZM4.25 25C3.91848 25 3.60054 25.1317 3.36612 25.3661C3.1317 25.6005 3 25.9185 3 26.25V28.75C3 29.0815 3.1317 29.3995 3.36612 29.6339C3.60054 29.8683 3.91848 30 4.25 30H6.75C7.08152 30 7.39946 29.8683 7.63388 29.6339C7.8683 29.3995 8 29.0815 8 28.75V26.25C8 25.9185 7.8683 25.6005 7.63388 25.3661C7.39946 25.1317 7.08152 25 6.75 25H4.25ZM30.5 26.25C30.5 25.2554 30.8951 24.3016 31.5983 23.5983C32.3016 22.8951 33.2554 22.5 34.25 22.5H36.75C37.7446 22.5 38.6984 22.8951 39.4016 23.5983C40.1049 24.3016 40.5 25.2554 40.5 26.25V28.75C40.5 29.7446 40.1049 30.6984 39.4016 31.4017C38.6984 32.1049 37.7446 32.5 36.75 32.5H34.25C33.2554 32.5 32.3016 32.1049 31.5983 31.4017C30.8951 30.6984 30.5 29.7446 30.5 28.75V26.25ZM34.25 25C33.9185 25 33.6005 25.1317 33.3661 25.3661C33.1317 25.6005 33 25.9185 33 26.25V28.75C33 29.0815 33.1317 29.3995 33.3661 29.6339C33.6005 29.8683 33.9185 30 34.25 30H36.75C37.0815 30 37.3995 29.8683 37.6339 29.6339C37.8683 29.3995 38 29.0815 38 28.75V26.25C38 25.9185 37.8683 25.6005 37.6339 25.3661C37.3995 25.1317 37.0815 25 36.75 25H34.25ZM15.5 11.25C15.5 10.2554 15.8951 9.30161 16.5983 8.59835C17.3016 7.89509 18.2554 7.5 19.25 7.5H21.75C22.7446 7.5 23.6984 7.89509 24.4017 8.59835C25.1049 9.30161 25.5 10.2554 25.5 11.25V13.75C25.5 14.7446 25.1049 15.6984 24.4017 16.4017C23.6984 17.1049 22.7446 17.5 21.75 17.5H19.25C18.2554 17.5 17.3016 17.1049 16.5983 16.4017C15.8951 15.6984 15.5 14.7446 15.5 13.75V11.25ZM19.25 10C18.9185 10 18.6005 10.1317 18.3661 10.3661C18.1317 10.6005 18 10.9185 18 11.25V13.75C18 14.0815 18.1317 14.3995 18.3661 14.6339C18.6005 14.8683 18.9185 15 19.25 15H21.75C22.0815 15 22.3995 14.8683 22.6339 14.6339C22.8683 14.3995 23 14.0815 23 13.75V11.25C23 10.9185 22.8683 10.6005 22.6339 10.3661C22.3995 10.1317 22.0815 10 21.75 10H19.25Z" fill="white"/>
<path d="M15.5001 11.25H5.16506C4.8899 10.7734 4.46515 10.4009 3.95671 10.1903C3.44826 9.9797 2.88454 9.94275 2.35295 10.0852C1.82137 10.2276 1.35164 10.5415 1.01662 10.9781C0.681594 11.4147 0.5 11.9497 0.5 12.5C0.5 13.0503 0.681594 13.5853 1.01662 14.0219C1.35164 14.4585 1.82137 14.7724 2.35295 14.9148C2.88454 15.0573 3.44826 15.0203 3.95671 14.8097C4.46515 14.5991 4.8899 14.2266 5.16506 13.75H11.8351C8.61564 15.7825 6.20972 18.8784 5.03506 22.5H6.75006C7.05756 22.5 7.36006 22.5375 7.64506 22.6075C8.3375 20.7949 9.40462 19.1487 10.7767 17.7766C12.1488 16.4046 13.7949 15.3374 15.6076 14.645C15.5359 14.3521 15.4999 14.0516 15.5001 13.75V11.25ZM25.3926 14.645C25.4643 14.3521 25.5003 14.0516 25.5001 13.75V11.25H35.8351C36.1102 10.7734 36.535 10.4009 37.0434 10.1903C37.5519 9.9797 38.1156 9.94275 38.6472 10.0852C39.1788 10.2276 39.6485 10.5415 39.9835 10.9781C40.3185 11.4147 40.5001 11.9497 40.5001 12.5C40.5001 13.0503 40.3185 13.5853 39.9835 14.0219C39.6485 14.4585 39.1788 14.7724 38.6472 14.9148C38.1156 15.0573 37.5519 15.0203 37.0434 14.8097C36.535 14.5991 36.1102 14.2266 35.8351 13.75H29.1651C32.3845 15.7825 34.7904 18.8784 35.9651 22.5H34.2501C33.9426 22.5 33.6426 22.5375 33.3551 22.6075C32.6626 20.7949 31.5955 19.1487 30.2234 17.7766C28.8514 16.4046 27.2052 15.3374 25.3926 14.645Z" fill="white"/>
</g>
<defs>
<clipPath id="clip0_461_2066">
<rect width="40" height="40" fill="white" transform="translate(0.5)"/>
</clipPath>
</defs>
</svg>
