<svg width="41" height="38" viewBox="0 0 41 38" fill="none" xmlns="http://www.w3.org/2000/svg">
<g clip-path="url(#clip0_461_2058)">
<path d="M11.75 14.1657C12.0815 14.1657 12.3995 14.0413 12.6339 13.8199C12.8683 13.5985 13 13.2983 13 12.9852C13 12.6721 12.8683 12.3718 12.6339 12.1504C12.3995 11.9291 12.0815 11.8047 11.75 11.8047C11.4185 11.8047 11.1005 11.9291 10.8661 12.1504C10.6317 12.3718 10.5 12.6721 10.5 12.9852C10.5 13.2983 10.6317 13.5985 10.8661 13.8199C11.1005 14.0413 11.4185 14.1657 11.75 14.1657ZM15.5 14.1657C15.8315 14.1657 16.1495 14.0413 16.3839 13.8199C16.6183 13.5985 16.75 13.2983 16.75 12.9852C16.75 12.6721 16.6183 12.3718 16.3839 12.1504C16.1495 11.9291 15.8315 11.8047 15.5 11.8047C15.1685 11.8047 14.8505 11.9291 14.6161 12.1504C14.3817 12.3718 14.25 12.6721 14.25 12.9852C14.25 13.2983 14.3817 13.5985 14.6161 13.8199C14.8505 14.0413 15.1685 14.1657 15.5 14.1657ZM20.5 12.9852C20.5 13.2983 20.3683 13.5985 20.1339 13.8199C19.8995 14.0413 19.5815 14.1657 19.25 14.1657C18.9185 14.1657 18.6005 14.0413 18.3661 13.8199C18.1317 13.5985 18 13.2983 18 12.9852C18 12.6721 18.1317 12.3718 18.3661 12.1504C18.6005 11.9291 18.9185 11.8047 19.25 11.8047C19.5815 11.8047 19.8995 11.9291 20.1339 12.1504C20.3683 12.3718 20.5 12.6721 20.5 12.9852Z" fill="white"/>
<path d="M30.5 2.36133C31.8261 2.36133 33.0979 2.85882 34.0355 3.74436C34.9732 4.62991 35.5 5.83096 35.5 7.0833C36.8261 7.0833 38.0979 7.5808 39.0355 8.46634C39.9732 9.35188 40.5 10.5529 40.5 11.8053V30.6932C40.5 31.9455 39.9732 33.1466 39.0355 34.0321C38.0979 34.9177 36.8261 35.4152 35.5 35.4152H10.5C9.17392 35.4152 7.90215 34.9177 6.96447 34.0321C6.02678 33.1466 5.5 31.9455 5.5 30.6932C4.17392 30.6932 2.90215 30.1957 1.96447 29.3102C1.02678 28.4246 0.5 27.2236 0.5 25.9712V7.0833C0.5 5.83096 1.02678 4.62991 1.96447 3.74436C2.90215 2.85882 4.17392 2.36133 5.5 2.36133H30.5ZM5.5 28.3322V11.8053C5.5 10.5529 6.02678 9.35188 6.96447 8.46634C7.90215 7.5808 9.17392 7.0833 10.5 7.0833H33C33 6.45713 32.7366 5.85661 32.2678 5.41383C31.7989 4.97106 31.163 4.72232 30.5 4.72232H5.5C4.83696 4.72232 4.20107 4.97106 3.73223 5.41383C3.26339 5.85661 3 6.45713 3 7.0833V25.9712C3 26.5974 3.26339 27.1979 3.73223 27.6407C4.20107 28.0835 4.83696 28.3322 5.5 28.3322ZM8 18.8882V30.6932C8 31.3194 8.26339 31.9199 8.73223 32.3627C9.20107 32.8054 9.83696 33.0542 10.5 33.0542H35.5C36.163 33.0542 36.7989 32.8054 37.2678 32.3627C37.7366 31.9199 38 31.3194 38 30.6932V18.8882H8ZM38 16.5273V11.8053C38 11.1791 37.7366 10.5786 37.2678 10.1358C36.7989 9.69304 36.163 9.44429 35.5 9.44429H10.5C9.83696 9.44429 9.20107 9.69304 8.73223 10.1358C8.26339 10.5786 8 11.1791 8 11.8053V16.5273H38Z" fill="white"/>
</g>
<defs>
<clipPath id="clip0_461_2058">
<rect width="40" height="37.7758" fill="white" transform="translate(0.5)"/>
</clipPath>
</defs>
</svg>
