<svg width="6112" height="3129" viewBox="0 0 6112 3129" fill="none" xmlns="http://www.w3.org/2000/svg">
<path d="M15 1153C30.2422 1230.7 52.3332 1322.12 81.3795 1420.54M5528 8C5741.85 366.577 5946.73 1102.64 6041.63 1768.22M1772.5 2281.33C1495.95 2467.92 1232.91 2599.5 1000.5 2578C855.699 2564.61 726.978 2496.35 614 2394.47M3011 1420.54C3190.31 1331.16 3364.98 1277.71 3530.5 1286C3825.61 1300.77 4113.49 1535.32 4396.1 1832M4796.68 2281.33C5138.96 2675.39 5474.68 3049.8 5807.5 3110.5C6024.1 3150 6104.16 2839.66 6096.15 2394.47" stroke="#FFEE99" stroke-width="30"/>
</svg>
