<svg fill="none" height="402" viewBox="0 0 1584 402" width="1584" xmlns="http://www.w3.org/2000/svg">
  <g clip-path="url(#clip0_49_703)">
    <mask height="402" id="mask0_49_703" maskUnits="userSpaceOnUse" style="mask-type:luminance" width="1584" x="0"
          y="0">
      <path d="M1584 0H0V402H1584V0Z" fill="white"/>
    </mask>
    <g mask="url(#mask0_49_703)">
      <path d="M91.8789 195.255H113.748V294.101H91.8789V195.255Z" fill="white"/>
      <path d="M91.8789 303.148H113.748V402H91.8789V303.148Z" fill="white"/>
      <path d="M151.654 153.646H173.524V273.294H151.654V153.646Z" fill="white"/>
      <path d="M151.654 25.3574H173.524V145.004H151.654V25.3574Z" fill="white"/>
      <path d="M151.654 282.347H173.524V402H151.654V282.347Z" fill="white"/>
      <path
        d="M40.7344 303.718C62.1404 308.967 77.5139 321.302 77.5139 321.302C77.5139 321.302 58.1855 325.16 36.7795 319.923C15.3796 314.691 0 302.356 0 302.356C0 302.356 19.3286 298.493 40.7344 303.718Z"
        fill="white"/>
      <path
        d="M45.4 336.103C61.8064 331.676 76.7573 334.219 76.7573 334.219C76.7573 334.219 65.11 343.93 48.7032 348.356C32.3028 352.789 17.3457 350.247 17.3457 350.247C17.3457 350.247 28.9933 340.536 45.4 336.103Z"
        fill="white"/>
      <path
        d="M49.3768 180.032C70.5363 186.173 85.3703 199.16 85.3703 199.16C85.3703 199.16 65.8949 202.189 44.7294 196.048C23.5702 189.907 8.73633 176.92 8.73633 176.92C8.73633 176.92 28.2117 173.891 49.3768 180.032Z"
        fill="white"/>
      <path
        d="M52.6808 212.68C68.0899 205.524 83.2639 205.482 83.2639 205.482C83.2639 205.482 73.4296 217.037 58.0146 224.194C42.6117 231.356 27.4375 231.398 27.4375 231.398C27.4375 231.398 37.2661 219.843 52.6808 212.68Z"
        fill="white"/>
      <path d="M213.789 195.255H235.659V294.101H213.789V195.255Z" fill="white"/>
      <path d="M213.789 303.148H235.659V402H213.789V303.148Z" fill="white"/>
      <path
        d="M285.681 304.082C265.232 312.296 251.754 326.691 251.754 326.691C251.754 326.691 271.434 327.784 291.884 319.564C312.333 311.356 325.812 296.972 325.812 296.972C325.812 296.972 306.125 295.88 285.681 304.082Z"
        fill="white"/>
      <path
        d="M274.069 337.195C261.735 332.598 250.773 334.212 250.773 334.212C250.773 334.212 259.798 343.277 272.132 347.886C284.467 352.483 295.439 350.863 295.439 350.863C295.439 350.863 286.403 341.792 274.069 337.195Z"
        fill="white"/>
      <path
        d="M266.417 182.269C251.437 189.391 241.203 201.972 241.203 201.972C241.203 201.972 255.263 202.994 270.231 195.866C285.212 188.744 295.44 176.169 295.44 176.169C295.44 176.169 281.386 175.141 266.417 182.269Z"
        fill="white"/>
      <path
        d="M272.078 211.213C258.066 207.479 244.635 209.604 244.635 209.604C244.635 209.604 253.965 217.759 267.983 221.487C281.995 225.221 295.432 223.096 295.432 223.096C295.432 223.096 286.108 214.947 272.078 211.213Z"
        fill="white"/>
      <path
        d="M97.8636 42.9763C119.269 48.2137 134.643 60.5547 134.643 60.5547C134.643 60.5547 115.314 64.406 93.9086 59.1747C72.5084 53.9498 57.1289 41.6027 57.1289 41.6027C57.1289 41.6027 76.4578 37.7512 97.8636 42.9763Z"
        fill="white"/>
      <path
        d="M101.513 75.7311C116.922 68.5743 132.096 68.5332 132.096 68.5332C132.096 68.5332 122.267 80.0876 106.853 87.2444C91.4434 94.4016 76.2754 94.4427 76.2754 94.4427C76.2754 94.4427 86.0981 82.8883 101.513 75.7311Z"
        fill="white"/>
      <path
        d="M117.655 19.1456C128.768 31.9975 132.976 46.5872 132.976 46.5872C132.976 46.5872 119.169 40.3051 108.061 27.4415C96.9474 14.5838 92.7402 0 92.7402 0C92.7402 0 106.535 6.28206 117.655 19.1456Z"
        fill="white"/>
    </g>
    <mask height="402" id="mask1_49_703" maskUnits="userSpaceOnUse" style="mask-type:luminance" width="1584" x="0"
          y="0">
      <path d="M1584 0H0V402H1584V0Z" fill="white"/>
    </mask>
    <g mask="url(#mask1_49_703)">
      <path
        d="M411.08 96.7294H465.942C479.606 96.7294 490.127 98.3609 497.505 101.624C504.883 104.887 510.686 109.899 514.921 116.658C519.151 123.418 521.267 130.877 521.267 139.034C521.267 146.726 519.383 153.719 515.619 160.012C511.85 166.305 506.318 171.394 499.021 175.278C508.104 178.386 515.053 181.98 519.871 186.059C524.684 190.138 528.452 195.091 531.167 200.918C533.886 206.744 535.244 213.077 535.244 219.914C535.244 233.821 530.156 245.573 519.986 255.168C509.812 264.763 496.225 269.561 479.221 269.561H411.08V96.735V96.7294ZM427.97 113.627V168.985H458.603C470.563 168.985 479.358 167.859 484.985 165.605C490.616 163.352 495.082 159.837 498.379 155.058C501.68 150.28 503.329 144.939 503.329 139.033C503.329 131.109 500.576 124.893 495.06 120.387C489.549 115.881 480.771 113.627 468.738 113.627C468.738 113.627 427.97 113.627 427.97 113.627ZM427.97 186.354V252.665H470.134C482.715 252.665 491.934 251.422 497.797 248.936C503.663 246.45 508.378 242.604 511.949 237.398C515.52 232.193 517.306 226.482 517.31 220.267C517.31 212.653 514.805 205.972 509.795 200.222C504.785 194.473 497.895 190.549 489.121 188.451C483.22 187.053 473.008 186.354 458.487 186.354H427.97ZM561.454 139.393H577.992V199.062C577.992 213.669 578.767 223.691 580.321 229.13C582.65 236.977 587.117 243.173 593.715 247.718C600.318 252.263 608.236 254.536 617.477 254.536C626.64 254.536 634.404 252.321 640.771 247.893C647.139 243.464 651.528 237.637 653.934 230.412C655.643 225.517 656.495 215.068 656.495 199.062V139.393H673.272V202.209C673.272 219.846 671.191 233.112 667.038 242.008C662.884 250.905 656.692 257.858 648.462 262.869C640.232 267.88 629.903 270.385 617.477 270.386C604.977 270.386 594.572 267.88 586.26 262.869C577.953 257.857 571.74 250.826 567.625 241.774C563.51 232.723 561.454 219.107 561.454 200.926V139.393ZM827.723 245.441C834.711 233.786 838.903 222.326 840.304 211.061C840.304 130.181 840.304 89.8186 840.304 89.9741H823.993V161.298C817.086 152.83 809.357 146.517 800.814 142.36C792.276 138.203 782.919 136.125 772.745 136.125C754.73 136.125 739.315 142.69 726.503 155.82C713.691 168.951 707.285 184.878 707.285 203.603C707.285 222.016 713.729 237.749 726.623 250.802C739.512 263.854 755.043 270.381 773.212 270.381C783.617 270.381 793.381 268.38 802.506 264.378C811.631 260.378 820.037 254.065 827.723 245.441ZM774.604 254.648C765.363 254.648 756.88 252.375 749.155 247.83C741.426 243.285 735.273 236.972 730.691 228.892C726.109 220.812 723.818 212.187 723.818 203.02C723.818 194.007 726.13 185.363 730.751 177.089C735.371 168.814 741.58 162.405 749.386 157.86C757.188 153.315 765.517 151.042 774.368 151.042C783.378 151.042 791.92 153.315 799.996 157.86C808.072 162.405 814.281 168.581 818.632 176.389C822.978 184.197 825.154 192.919 825.154 202.553C825.154 217.393 820.264 229.785 810.479 239.73C800.694 249.675 788.735 254.648 774.604 254.648ZM1000.57 241.244C1000.57 259.192 998.972 272.322 995.786 280.635C991.517 292.368 984.045 301.399 973.365 307.732C962.69 314.064 949.895 317.23 934.985 317.23C923.959 317.23 914.097 315.676 905.4 312.568C896.703 309.46 889.599 305.304 884.088 300.098C878.573 294.893 873.524 287.279 868.947 277.256H886.764C891.659 285.725 897.928 291.979 905.576 296.019C913.223 300.059 922.755 302.079 934.171 302.079C945.352 302.079 954.807 299.981 962.536 295.786C970.261 291.59 975.755 286.346 979.013 280.052C982.276 273.759 983.908 263.542 983.908 249.401V242.875C977.772 250.722 970.222 256.743 961.251 260.939C952.285 265.134 942.83 267.232 932.891 267.232C921.167 267.232 910.119 264.318 899.752 258.492C889.385 252.664 881.39 244.798 875.759 234.892C870.128 224.986 867.315 214.129 867.315 202.319C867.315 190.509 870.244 179.496 876.106 169.279C881.973 159.062 890.104 150.982 900.51 145.037C910.915 139.093 921.826 136.122 933.238 136.122C942.868 136.122 951.604 137.598 959.449 140.551C966.047 142.959 973.849 147.582 982.859 154.419C990.468 160.713 996.446 172.716 1000.8 190.43C1000.64 192.761 1000.57 209.7 1000.57 241.244ZM935.34 151.971C926.023 151.971 917.386 154.224 909.425 158.731C901.465 163.236 895.217 169.452 890.674 177.377C886.131 185.302 883.857 193.887 883.857 203.133C883.857 217.195 888.559 228.811 897.953 237.979C907.348 247.147 919.501 251.73 934.411 251.73C949.63 251.73 961.821 247.185 970.984 238.095C980.144 229.004 984.726 217.04 984.726 202.2C984.726 192.566 982.61 183.981 978.38 176.444C974.145 168.908 968.167 162.945 960.442 158.555C952.713 154.166 944.35 151.971 935.34 151.971ZM1143.02 224.813L1156.76 232.155C1152.34 241.09 1147.14 248.276 1141.15 253.715C1135.18 259.154 1128.46 263.291 1121.01 266.126C1113.55 268.962 1105.13 270.38 1095.73 270.38C1074.92 270.38 1058.65 263.563 1046.93 249.927C1035.2 236.292 1029.34 220.889 1029.34 203.718C1029.34 187.48 1034.31 173.029 1044.25 160.365C1056.83 144.204 1073.72 136.124 1094.92 136.124C1116.58 136.124 1133.93 144.399 1146.98 160.947C1156.22 172.601 1160.88 187.13 1160.96 204.534H1046.23C1046.54 219.451 1051.28 231.669 1060.44 241.186C1069.6 250.704 1080.9 255.462 1094.33 255.462C1100.86 255.462 1107.18 254.317 1113.32 252.025C1119.45 249.733 1124.68 246.722 1128.98 242.992C1133.3 239.263 1137.97 233.204 1143.02 224.813ZM1143.02 190.433C1140.85 181.653 1137.66 174.641 1133.47 169.397C1129.28 164.153 1123.73 159.918 1116.82 156.693C1109.9 153.469 1102.64 151.856 1095.03 151.857C1082.53 151.857 1071.78 155.897 1062.77 163.977C1056.25 169.882 1051.32 178.7 1047.98 190.432L1143.02 190.433ZM1237.6 252.2C1229.52 256.551 1221.6 256.9 1213.84 253.249C1204.36 246.023 1199.86 235.729 1200.32 222.365V168.289H1230.61V154.189H1200.21V92.4209H1183.67V225.161C1183.51 234.485 1185.65 243.031 1190.08 250.8C1197.37 263.154 1207.32 269.68 1219.89 270.379C1226.57 270.613 1234.18 269.097 1242.73 265.834C1241.4 262.571 1239.69 258.027 1237.6 252.2ZM1271.38 96.7294H1305.74C1325.54 96.7294 1338.85 97.5837 1345.69 99.2932C1355.63 101.78 1363.7 106.791 1369.92 114.327C1376.13 121.863 1379.23 131.381 1379.23 142.88C1379.23 154.301 1376.19 163.76 1370.09 171.258C1363.99 178.755 1355.59 183.786 1344.88 186.35C1337.03 188.214 1322.39 189.146 1300.96 189.146H1288.61V269.56H1271.38V96.7341V96.7294ZM1288.62 113.52V172.257L1317.97 172.607C1329.69 172.607 1338.29 171.539 1343.77 169.402C1349.24 167.266 1353.55 163.769 1356.69 158.913C1359.84 154.057 1361.41 148.716 1361.41 142.889C1361.41 136.984 1359.84 131.623 1356.69 126.806C1353.55 121.989 1349.41 118.57 1344.29 116.55C1339.17 114.53 1330.78 113.52 1319.13 113.52C1319.13 113.52 1288.62 113.52 1288.62 113.52ZM1471.25 136.123C1490.89 136.123 1507.2 143.232 1520.17 157.45C1532.13 170.425 1538.11 185.847 1538.11 203.717C1538.26 247.847 1538.26 270.262 1538.11 270.961H1520.75V241.943C1511.67 258.881 1495.17 268.359 1471.25 270.379C1451.68 270.379 1435.71 263.717 1423.32 250.392C1410.93 237.068 1404.74 221.51 1404.74 203.718C1404.74 186.003 1410.6 170.62 1422.33 157.567C1435.3 143.272 1451.61 136.123 1471.25 136.123ZM1471.25 152.21C1457.66 152.21 1445.97 157.26 1436.19 167.36C1426.41 177.461 1421.52 189.658 1421.52 203.954C1421.52 213.199 1424.02 222.096 1429.03 230.642C1434.04 239.188 1442.52 246.414 1454.48 252.319C1484.45 259.001 1505.77 245.365 1518.42 211.413C1519.12 200.535 1517.96 190.125 1514.93 180.179C1512.75 175.673 1509.77 171.4 1505.96 167.36C1496.41 157.26 1484.84 152.21 1471.25 152.21ZM1567.46 93.0058H1584V270.271H1567.46V93.0058Z"
        fill="white"/>
    </g>
  </g>
  <defs>
    <clipPath id="clip0_49_703">
      <rect fill="white" height="402" width="1584"/>
    </clipPath>
  </defs>
</svg>
