<?xml version="1.0" encoding="UTF-8" standalone="no"?>
<!DOCTYPE svg PUBLIC "-//W3C//DTD SVG 1.1//EN" "http://www.w3.org/Graphics/SVG/1.1/DTD/svg11.dtd">
<!-- Created with Vectornator (http://vectornator.io/) -->
<svg height="100%" stroke-miterlimit="10"
     style="fill-rule:nonzero;clip-rule:evenodd;stroke-linecap:round;stroke-linejoin:round;" version="1.1"
     viewBox="0 0 369.913 93.8271" width="100%" xml:space="preserve" xmlns="http://www.w3.org/2000/svg"
     xmlns:vectornator="http://vectornator.io">
<defs/>
  <clipPath id="ArtboardFrame">
<rect height="93.8271" width="369.913" x="0" y="0"/>
</clipPath>
  <g clip-path="url(#ArtboardFrame)" id="SvgjsG1044" vectornator:layerName="SvgjsG1044">
<g opacity="1" vectornator:layerName="g">
<path
  d="M21.4565 45.5727L26.5636 45.5727L26.5636 45.5727L26.5636 68.6434L26.5636 68.6434L21.4565 68.6434L21.4565 68.6434L21.4565 45.5727L21.4565 45.5727Z"
  fill="#4c102a" fill-rule="nonzero" opacity="1" stroke="none" vectornator:layerName="rect"/>
  <path
    d="M21.4565 70.7551L26.5636 70.7551L26.5636 70.7551L26.5636 93.8271L26.5636 93.8271L21.4565 93.8271L21.4565 93.8271L21.4565 70.7551L21.4565 70.7551Z"
    fill="#4c102a" fill-rule="nonzero" opacity="1" stroke="none" vectornator:layerName="rect"/>
  <path
    d="M35.4159 35.8612L40.5231 35.8612L40.5231 35.8612L40.5231 63.787L40.5231 63.787L35.4159 63.787L35.4159 63.787L35.4159 35.8612L35.4159 35.8612Z"
    fill="#4c102a" fill-rule="nonzero" opacity="1" stroke="none" vectornator:layerName="rect"/>
  <path
    d="M35.4159 5.91841L40.5231 5.91841L40.5231 5.91841L40.5231 33.8441L40.5231 33.8441L35.4159 33.8441L35.4159 33.8441L35.4159 5.91841L35.4159 5.91841Z"
    fill="#4c102a" fill-rule="nonzero" opacity="1" stroke="none" vectornator:layerName="rect"/>
  <path
    d="M35.4159 65.9L40.5231 65.9L40.5231 65.9L40.5231 93.8271L40.5231 93.8271L35.4159 93.8271L35.4159 93.8271L35.4159 65.9L35.4159 65.9Z"
    fill="#4c102a" fill-rule="nonzero" opacity="1" stroke="none" vectornator:layerName="rect"/>
  <path
    d="M9.51275 70.888C14.5117 72.113 18.1019 74.9921 18.1019 74.9921C18.1019 74.9921 13.5881 75.8924 8.58916 74.6701C3.5916 73.4491-1.85704e-06 70.5701-1.85704e-06 70.5701C-1.85704e-06 70.5701 4.51383 69.6684 9.51275 70.888Z"
    fill="#4c102a" fill-rule="nonzero" opacity="1" stroke="none" vectornator:layerName="path"/>
  <path
    d="M10.6022 78.4467C14.4336 77.4134 17.9251 78.0068 17.9251 78.0068C17.9251 78.0068 15.2051 80.2733 11.3736 81.3065C7.5436 82.3411 4.05066 81.7478 4.05066 81.7478C4.05066 81.7478 6.77074 79.4812 10.6022 78.4467Z"
    fill="#4c102a" fill-rule="nonzero" opacity="1" stroke="none" vectornator:layerName="path"/>
  <path
    d="M11.5312 42.0195C16.4726 43.4528 19.9368 46.484 19.9368 46.484C19.9368 46.484 15.3887 47.191 10.4459 45.7577C5.50457 44.3243 2.0404 41.2932 2.0404 41.2932C2.0404 41.2932 6.58849 40.5861 11.5312 42.0195Z"
    fill="#4c102a" fill-rule="nonzero" opacity="1" stroke="none" vectornator:layerName="path"/>
  <path
    d="M12.3027 49.6398C15.9012 47.9694 19.4448 47.9598 19.4448 47.9598C19.4448 47.9598 17.1482 50.6566 13.5483 52.327C9.95125 53.9988 6.40761 54.0084 6.40761 54.0084C6.40761 54.0084 8.70289 51.3116 12.3027 49.6398Z"
    fill="#4c102a" fill-rule="nonzero" opacity="1" stroke="none" vectornator:layerName="path"/>
  <path
    d="M49.9262 45.5727L55.0334 45.5727L55.0334 45.5727L55.0334 68.6434L55.0334 68.6434L49.9262 68.6434L49.9262 68.6434L49.9262 45.5727L49.9262 45.5727Z"
    fill="#4c102a" fill-rule="nonzero" opacity="1" stroke="none" vectornator:layerName="rect"/>
  <path
    d="M49.9262 70.7551L55.0334 70.7551L55.0334 70.7551L55.0334 93.8271L55.0334 93.8271L49.9262 93.8271L49.9262 93.8271L49.9262 70.7551L49.9262 70.7551Z"
    fill="#4c102a" fill-rule="nonzero" opacity="1" stroke="none" vectornator:layerName="rect"/>
  <path
    d="M66.7153 70.9729C61.9398 72.89 58.7922 76.25 58.7922 76.25C58.7922 76.25 63.3882 76.5049 68.1638 74.5865C72.9393 72.6708 76.087 69.3135 76.087 69.3135C76.087 69.3135 71.4895 69.0586 66.7153 70.9729Z"
    fill="#4c102a" fill-rule="nonzero" opacity="1" stroke="none" vectornator:layerName="path"/>
  <path
    d="M64.0035 78.7015C61.1231 77.6286 58.5633 78.0054 58.5633 78.0054C58.5633 78.0054 60.6709 80.1212 63.5513 81.1969C66.4317 82.2698 68.9942 81.8916 68.9942 81.8916C68.9942 81.8916 66.8839 79.7745 64.0035 78.7015Z"
    fill="#4c102a" fill-rule="nonzero" opacity="1" stroke="none" vectornator:layerName="path"/>
  <path
    d="M62.2166 42.5416C58.7182 44.2038 56.3283 47.1403 56.3283 47.1403C56.3283 47.1403 59.6116 47.3788 63.1073 45.7152C66.6057 44.053 68.9942 41.1178 68.9942 41.1178C68.9942 41.1178 65.7123 40.878 62.2166 42.5416Z"
    fill="#4c102a" fill-rule="nonzero" opacity="1" stroke="none" vectornator:layerName="path"/>
  <path
    d="M63.5389 49.2972C60.2666 48.4257 57.13 48.9218 57.13 48.9218C57.13 48.9218 59.3088 50.8251 62.5825 51.6953C65.8548 52.5668 68.9928 52.0708 68.9928 52.0708C68.9928 52.0708 66.8154 50.1688 63.5389 49.2972Z"
    fill="#4c102a" fill-rule="nonzero" opacity="1" stroke="none" vectornator:layerName="path"/>
  <path
    d="M22.8542 10.0307C27.8531 11.2531 31.4433 14.1335 31.4433 14.1335C31.4433 14.1335 26.9295 15.0324 21.9306 13.8114C16.933 12.5919 13.3414 9.71008 13.3414 9.71008C13.3414 9.71008 17.8553 8.81115 22.8542 10.0307Z"
    fill="#4c102a" fill-rule="nonzero" opacity="1" stroke="none" vectornator:layerName="path"/>
  <path
    d="M23.7065 17.6757C27.305 16.0053 30.8486 15.9957 30.8486 15.9957C30.8486 15.9957 28.5533 18.6925 24.9535 20.3629C21.355 22.0334 17.8128 22.043 17.8128 22.043C17.8128 22.043 20.1067 19.3462 23.7065 17.6757Z"
    fill="#4c102a" fill-rule="nonzero" opacity="1" stroke="none" vectornator:layerName="path"/>
  <path
    d="M27.4763 4.46861C30.0716 7.46824 31.0542 10.8735 31.0542 10.8735C31.0542 10.8735 27.8298 9.40724 25.2358 6.40487C22.6404 3.40387 21.6579 1.39666e-06 21.6579 1.39666e-06C21.6579 1.39666e-06 24.8795 1.46624 27.4763 4.46861Z"
    fill="#4c102a" fill-rule="nonzero" opacity="1" stroke="none" vectornator:layerName="path"/>
</g>
</g>
  <g clip-path="url(#ArtboardFrame)" id="SvgjsG1045" vectornator:layerName="SvgjsG1045">
<path
  d="M96 22.5768L108.812 22.5768C112.003 22.5768 114.46 22.9576 116.183 23.7192C117.906 24.4808 119.261 25.6505 120.25 27.2282C121.238 28.8059 121.732 30.5468 121.732 32.4508C121.732 34.246 121.292 35.8781 120.413 37.3469C119.533 38.8158 118.241 40.0035 116.537 40.9102C118.658 41.6356 120.281 42.4743 121.406 43.4263C122.53 44.3784 123.41 45.5344 124.044 46.8944C124.679 48.2544 124.996 49.7323 124.996 51.3281C124.996 54.5741 123.808 57.3169 121.433 59.5564C119.057 61.796 115.884 62.9158 111.913 62.9159L96 62.9159L96 22.5781L96 22.5768ZM99.9444 26.5208L99.9444 39.4413L107.098 39.4413C109.891 39.4413 111.945 39.1784 113.259 38.6525C114.574 38.1266 115.617 37.3061 116.387 36.1908C117.158 35.0756 117.543 33.8289 117.543 32.4506C117.543 30.601 116.9 29.1503 115.612 28.0985C114.325 27.0467 112.275 26.5208 109.465 26.5208C109.465 26.5208 99.9443 26.5208 99.9444 26.5208ZM99.9444 43.4952L99.9444 58.9723L109.791 58.9723C112.729 58.9723 114.882 58.6822 116.251 58.1019C117.621 57.5216 118.722 56.624 119.556 55.409C120.39 54.194 120.807 52.8612 120.808 51.4106C120.808 49.6335 120.223 48.074 119.053 46.7321C117.883 45.3902 116.274 44.4744 114.225 43.9848C112.847 43.6584 110.462 43.4952 107.071 43.4952C107.071 43.4952 99.9444 43.4952 99.9444 43.4952ZM131.117 32.5344L134.979 32.5344L134.979 46.4613C134.979 49.8705 135.16 52.2098 135.523 53.4791C136.067 55.3107 137.11 56.7568 138.651 57.8177C140.193 58.8785 142.042 59.4089 144.2 59.4089C146.34 59.4089 148.153 58.8921 149.64 57.8585C151.127 56.8248 152.152 55.4648 152.714 53.7785C153.113 52.636 153.312 50.197 153.312 46.4614L153.312 32.5346L157.23 32.5346L157.23 47.1959C157.23 51.3123 156.744 54.4087 155.774 56.485C154.804 58.5614 153.358 60.1843 151.436 61.3539C149.514 62.5234 147.102 63.1082 144.2 63.1083C141.281 63.1083 138.851 62.5235 136.91 61.3538C134.97 60.1842 133.519 58.5431 132.558 56.4304C131.597 54.3178 131.117 51.1398 131.117 46.8964L131.117 32.5342L131.117 32.5344ZM193.299 57.2861C194.931 54.566 195.91 51.8912 196.237 49.2618C196.237 30.3844 196.237 20.9638 196.237 21.0001L192.428 21.0001L192.428 37.6472C190.815 35.6706 189.01 34.1972 187.015 33.227C185.021 32.2568 182.836 31.7718 180.46 31.7718C176.253 31.7718 172.653 33.3041 169.661 36.3687C166.669 39.4333 165.173 43.1508 165.173 47.5211C165.173 51.8188 166.678 55.4909 169.689 58.5374C172.699 61.5839 176.326 63.1071 180.569 63.1071C182.999 63.1071 185.279 62.6401 187.41 61.7062C189.541 60.7724 191.504 59.299 193.299 57.2861L193.299 57.2861ZM180.894 59.435C178.736 59.435 176.755 58.9046 174.951 57.8437C173.146 56.7829 171.709 55.3095 170.639 53.4236C169.569 51.5377 169.034 49.5248 169.034 47.385C169.034 45.2814 169.574 43.264 170.653 41.3328C171.732 39.4015 173.182 37.9055 175.005 36.8447C176.827 35.7839 178.772 35.2535 180.839 35.2534C182.943 35.2534 184.938 35.7839 186.824 36.8447C188.71 37.9055 190.16 39.3471 191.176 41.1695C192.191 42.9919 192.699 45.0275 192.699 47.2762C192.699 50.7398 191.557 53.6321 189.272 55.9533C186.987 58.2744 184.194 59.435 180.894 59.435L180.894 59.435ZM233.663 56.3067C233.663 60.4957 233.291 63.5603 232.547 65.5006C231.55 68.2389 229.805 70.3469 227.311 71.8249C224.818 73.3028 221.83 74.0417 218.348 74.0417C215.773 74.0417 213.47 73.6791 211.439 72.9537C209.408 72.2283 207.749 71.2582 206.462 70.0433C205.174 68.8283 203.995 67.0512 202.926 64.7118L207.087 64.7118C208.23 66.6884 209.694 68.1482 211.48 69.0911C213.266 70.0341 215.492 70.5056 218.158 70.5056C220.769 70.5056 222.977 70.0159 224.782 69.0367C226.586 68.0575 227.869 66.8334 228.63 65.3645C229.392 63.8956 229.773 61.5109 229.773 58.2105L229.773 56.6873C228.34 58.5188 226.577 59.9242 224.482 60.9034C222.388 61.8826 220.18 62.3723 217.859 62.3722C215.121 62.3722 212.541 61.6922 210.12 60.3322C207.699 58.9721 205.832 57.1361 204.517 54.8241C203.202 52.5121 202.545 49.9779 202.545 47.2214C202.545 44.465 203.229 41.8945 204.598 39.5099C205.968 37.1253 207.867 35.2393 210.297 33.8519C212.727 32.4646 215.275 31.771 217.94 31.7711C220.189 31.7711 222.229 32.1156 224.061 32.8047C225.602 33.3669 227.424 34.4458 229.528 36.0416C231.305 37.5105 232.701 40.3122 233.717 44.4467C233.681 44.9907 233.663 48.9439 233.663 56.3063L233.663 56.3067ZM218.431 35.4702C216.255 35.4702 214.238 35.9961 212.379 37.0479C210.52 38.0996 209.061 39.5504 208 41.4C206.939 43.2497 206.408 45.2535 206.408 47.4114C206.408 50.6936 207.506 53.4047 209.7 55.5445C211.894 57.6843 214.732 58.7541 218.214 58.7541C221.768 58.7541 224.615 57.6932 226.755 55.5716C228.894 53.4499 229.964 50.6573 229.964 47.1937C229.964 44.9451 229.47 42.9413 228.482 41.1823C227.493 39.4233 226.097 38.0316 224.293 37.007C222.488 35.9825 220.535 35.4702 218.431 35.4702L218.431 35.4702ZM266.931 52.4716L270.14 54.1852C269.107 56.2706 267.892 57.948 266.495 59.2174C265.099 60.4868 263.531 61.4523 261.79 62.1142C260.049 62.776 258.081 63.1069 255.887 63.107C251.027 63.107 247.228 61.5158 244.49 58.3333C241.752 55.1508 240.383 51.5557 240.383 47.548C240.383 43.758 241.543 40.3851 243.864 37.4293C246.802 33.6574 250.746 31.7715 255.697 31.7715C260.756 31.7715 264.809 33.7028 267.856 37.5653C270.013 40.2854 271.101 43.6764 271.12 47.7384L244.327 47.7384C244.399 51.2201 245.506 54.0717 247.645 56.2931C249.785 58.5145 252.424 59.6252 255.561 59.6252C257.084 59.6252 258.562 59.3578 259.995 58.8228C261.427 58.2879 262.647 57.5852 263.653 56.7147C264.66 55.8443 265.752 54.4299 266.931 52.4715L266.931 52.4716ZM266.931 44.4472C266.423 42.3981 265.68 40.7615 264.7 39.5374C263.721 38.3134 262.425 37.3251 260.811 36.5724C259.197 35.8198 257.501 35.4435 255.724 35.4436C252.804 35.4436 250.293 36.3866 248.189 38.2725C246.666 39.6507 245.515 41.7089 244.735 44.4471L266.931 44.4471L266.931 44.4472ZM289.018 58.8637C287.132 59.8792 285.282 59.9608 283.469 59.1085C281.256 57.4221 280.204 55.0193 280.313 51.9003L280.313 39.2789L287.386 39.2789L287.386 35.9878L280.286 35.9878L280.286 21.5712L276.424 21.5712L276.424 52.5529C276.387 54.729 276.886 56.7237 277.92 58.5371C279.624 61.4204 281.946 62.9436 284.883 63.1068C286.443 63.1613 288.22 62.8076 290.215 62.046C289.906 61.2844 289.507 60.2236 289.018 58.8635L289.018 58.8637ZM296.906 22.5768L304.93 22.5768C309.554 22.5768 312.664 22.7762 314.26 23.1752C316.581 23.7555 318.467 24.9251 319.918 26.6841C321.369 28.4431 322.094 30.6645 322.094 33.3484C322.094 36.014 321.382 38.2219 319.959 39.9718C318.535 41.7217 316.572 42.8958 314.07 43.4942C312.238 43.9294 308.82 44.147 303.815 44.147L300.931 44.147L300.931 62.9156L296.906 62.9156L296.906 22.5779L296.906 22.5768ZM300.932 26.4958L300.932 40.2051L307.786 40.2867C310.524 40.2867 312.533 40.0373 313.811 39.5387C315.09 39.04 316.096 38.2239 316.83 37.0906C317.565 35.9572 317.932 34.7105 317.932 33.3504C317.932 31.9722 317.565 30.721 316.83 29.5967C316.096 28.4723 315.13 27.6745 313.934 27.203C312.737 26.7315 310.778 26.4957 308.058 26.4957C308.058 26.4957 300.932 26.4957 300.932 26.4958ZM343.583 31.7713C348.17 31.7713 351.979 33.4305 355.007 36.749C357.8 39.7774 359.196 43.377 359.196 47.5478C359.232 57.8478 359.232 63.0795 359.196 63.2427L355.143 63.2427L355.143 56.4698C353.021 60.423 349.168 62.6353 343.582 63.1068C339.013 63.1068 335.282 61.5518 332.389 58.4418C329.497 55.3319 328.051 51.7006 328.051 47.548C328.051 43.4134 329.42 39.8229 332.158 36.7764C335.187 33.4398 338.995 31.7715 343.583 31.7715L343.583 31.7713ZM343.583 35.5259C340.409 35.5259 337.68 36.7046 335.395 39.0621C333.11 41.4195 331.968 44.2665 331.968 47.6031C331.968 49.761 332.553 51.8374 333.722 53.8321C334.892 55.8268 336.873 57.5133 339.666 58.8915C346.665 60.451 351.643 57.2685 354.599 49.344C354.762 46.8052 354.49 44.3753 353.783 42.0541C353.275 41.0023 352.577 40.005 351.688 39.062C349.458 36.7046 346.756 35.5259 343.583 35.5259ZM366.051 21.7077L369.913 21.7077L369.913 63.0816L366.051 63.0816L366.051 21.7077Z"
  fill="#4c102a" fill-rule="nonzero" opacity="1" stroke="none" vectornator:layerName="path"/>
</g>
</svg>
