<?xml version="1.0" standalone="no"?>
<!DOCTYPE svg PUBLIC "-//W3C//DTD SVG 20010904//EN"
 "http://www.w3.org/TR/2001/REC-SVG-20010904/DTD/svg10.dtd">
<svg version="1.0" xmlns="http://www.w3.org/2000/svg"
 width="752.000000pt" height="752.000000pt" viewBox="0 0 752.000000 752.000000"
 preserveAspectRatio="xMidYMid meet">
<metadata>
Created by potrace 1.14, written by Peter Selinger 2001-2017
</metadata>
<g transform="translate(0.000000,752.000000) scale(0.100000,-0.100000)"
fill="#000000" stroke="none">
<path d="M2410 7514 c0 -14 76 -186 107 -244 135 -244 308 -423 554 -571 61
-36 85 -46 87 -36 4 20 -68 185 -124 281 -127 220 -328 416 -555 544 -57 32
-69 37 -69 26z"/>
<path d="M3510 5930 l0 -1120 205 0 205 0 0 1120 0 1120 -205 0 -205 0 0
-1120z"/>
<path d="M1895 6765 c-5 -2 -40 -6 -77 -10 -38 -4 -68 -10 -68 -13 0 -15 171
-120 296 -183 325 -163 664 -225 1031 -188 62 7 113 16 113 21 0 15 -180 126
-305 188 -194 96 -399 156 -610 180 -83 9 -357 13 -380 5z"/>
<path d="M3015 6233 c-77 -9 -236 -47 -314 -75 -184 -65 -361 -174 -507 -311
-49 -47 -87 -87 -84 -89 9 -9 175 11 270 33 276 63 500 184 713 388 26 25 47
49 47 53 0 8 -67 9 -125 1z"/>
<path d="M3512 3533 l3 -1118 203 -3 202 -2 0 1120 0 1120 -205 0 -205 0 2
-1117z"/>
<path d="M873 4223 c-13 -2 -23 -7 -23 -11 0 -9 106 -86 191 -139 271 -169
560 -262 876 -282 134 -9 335 -3 348 10 9 9 -94 87 -201 152 -320 195 -625
279 -1002 276 -92 -1 -177 -4 -189 -6z"/>
<path d="M5935 4210 c-251 -53 -468 -174 -668 -374 l-82 -81 70 -3 c128 -6
318 36 463 104 121 55 267 159 381 270 l106 103 -90 0 c-49 0 -130 -9 -180
-19z"/>
<path d="M2397 3874 c-4 -4 -7 -421 -7 -926 l0 -918 210 0 210 0 -2 923 -3
922 -201 3 c-110 1 -203 -1 -207 -4z"/>
<path d="M4677 3874 c-4 -4 -7 -421 -7 -926 l0 -918 210 0 210 0 -2 923 -3
922 -201 3 c-110 1 -203 -1 -207 -4z"/>
<path d="M2127 3678 c-174 -18 -402 -89 -550 -171 -127 -71 -377 -270 -377
-299 0 -16 134 -4 255 22 191 42 347 108 513 220 120 80 297 246 255 239 -5
-1 -48 -6 -96 -11z"/>
<path d="M5275 3612 l-30 -7 58 -42 c125 -90 307 -168 461 -199 88 -18 336
-28 396 -17 l45 9 -65 46 c-120 84 -279 155 -430 189 -90 21 -378 35 -435 21z"/>
<path d="M3510 1130 l0 -1120 205 0 205 0 0 1120 0 1120 -205 0 -205 0 0
-1120z"/>
<path d="M6535 1969 c-347 -37 -666 -160 -940 -364 -78 -58 -198 -163 -204
-178 -5 -15 254 -2 362 18 277 50 492 137 722 290 110 74 275 209 283 233 4
14 -92 15 -223 1z"/>
<path d="M810 1894 c-8 -1 -42 -6 -75 -9 l-60 -7 30 -24 c47 -39 181 -118 294
-174 288 -143 632 -208 961 -181 79 6 147 14 152 17 15 10 -11 32 -102 88
-338 210 -646 298 -1028 295 -86 -1 -164 -3 -172 -5z"/>
<path d="M2392 938 l3 -923 208 -3 207 -2 0 925 0 925 -210 0 -210 0 2 -922z"/>
<path d="M4670 935 l0 -925 208 2 207 3 0 920 0 920 -207 3 -208 2 0 -925z"/>
<path d="M1785 1290 c-188 -16 -360 -65 -530 -150 -111 -56 -241 -141 -238
-156 4 -16 173 -24 299 -14 200 16 348 54 519 136 123 58 283 164 264 174 -23
12 -216 18 -314 10z"/>
<path d="M5381 1282 c-10 -7 2 -22 50 -62 129 -107 297 -195 439 -230 94 -23
313 -39 323 -23 7 12 -120 114 -215 172 -93 57 -212 105 -310 125 -95 20 -268
30 -287 18z"/>
</g>
</svg>
